<svg width="214" height="48" viewBox="0 0 214 48" fill="none" xmlns="http://www.w3.org/2000/svg">
<path d="M11.844 40.936C11.004 40.936 10.008 40.9 8.856 40.828C7.704 40.756 6.612 40.648 5.58 40.504L3.528 17.32C4.272 17.08 5.208 16.84 6.336 16.6C7.488 16.36 8.712 16.156 10.008 15.988C11.304 15.796 12.54 15.7 13.716 15.7C14.988 15.7 16.248 15.832 17.496 16.096C18.768 16.36 19.908 16.804 20.916 17.428C21.132 18.076 21.288 18.7 21.384 19.3C21.48 19.876 21.528 20.428 21.528 20.956C21.528 22.3 21.228 23.488 20.628 24.52C20.052 25.528 19.272 26.404 18.288 27.148C19.704 28.252 20.784 29.476 21.528 30.82C22.296 32.164 22.68 33.388 22.68 34.492C22.68 35.644 22.32 36.712 21.6 37.696C20.904 38.656 19.764 39.436 18.18 40.036C16.596 40.636 14.484 40.936 11.844 40.936ZM10.44 28.336C12.12 27.664 13.416 26.752 14.328 25.6C15.24 24.448 15.696 23.32 15.696 22.216C15.696 21.496 15.528 20.728 15.192 19.912C14.88 19.096 14.412 18.472 13.788 18.04C13.476 18.04 13.116 18.088 12.708 18.184C12.324 18.256 11.916 18.352 11.484 18.472L10.44 28.336ZM12.924 38.38C13.116 38.38 13.392 38.38 13.752 38.38C14.112 38.356 14.472 38.332 14.832 38.308C15.192 38.26 15.444 38.212 15.588 38.164C15.876 37.588 16.152 36.844 16.416 35.932C16.704 34.996 16.848 34 16.848 32.944C16.848 32.2 16.752 31.468 16.56 30.748C16.392 30.028 16.092 29.332 15.66 28.66C14.844 29.044 13.968 29.38 13.032 29.668C12.12 29.932 11.184 30.172 10.224 30.388L9.432 37.84C10.032 38.008 10.62 38.14 11.196 38.236C11.796 38.332 12.372 38.38 12.924 38.38ZM31.2893 19.696C30.3773 19.696 29.5853 19.372 28.9133 18.724C28.2653 18.052 27.9413 17.26 27.9413 16.348C27.9413 15.436 28.2653 14.656 28.9133 14.008C29.5853 13.336 30.3773 13 31.2893 13C32.2013 13 32.9813 13.336 33.6293 14.008C34.3013 14.656 34.6373 15.436 34.6373 16.348C34.6373 17.26 34.3013 18.052 33.6293 18.724C32.9813 19.372 32.2013 19.696 31.2893 19.696ZM29.6333 40.54L27.7973 22.72L35.5013 21.532L33.1973 40.216L29.6333 40.54ZM52.5119 47.92C51.1919 47.92 49.9439 47.704 48.7679 47.272C47.5919 46.864 46.3679 46.24 45.0959 45.4L46.1039 43.6C48.2399 44.536 50.0519 45.004 51.5399 45.004C52.9079 45.004 53.9039 44.62 54.5279 43.852C55.1759 43.084 55.4999 42.1 55.4999 40.9C55.4999 40.828 55.4879 40.708 55.4639 40.54C55.4639 40.396 55.4399 40.084 55.3919 39.604C55.3679 39.1 55.2959 38.332 55.1759 37.3C55.0799 36.244 54.9359 34.792 54.7439 32.944H54.4559C53.4959 35.488 52.2239 37.324 50.6399 38.452C49.0559 39.556 47.3039 40.108 45.3839 40.108C45.2399 40.108 44.9999 40.072 44.6639 40C44.3279 39.952 44.0879 39.892 43.9439 39.82C43.0559 38.956 42.3359 37.672 41.7839 35.968C41.2559 34.24 40.9919 32.296 40.9919 30.136C40.9919 28.36 41.2199 26.884 41.6759 25.708C42.1319 24.532 42.8999 23.644 43.9799 23.044C45.0839 22.444 46.5839 22.144 48.4799 22.144C49.4639 22.144 50.3879 22.264 51.2519 22.504C52.1399 22.744 52.9559 23.104 53.6999 23.584L54.4919 22.54L61.4039 21.496L58.9199 41.62C58.6799 43.516 58.0079 45.04 56.9039 46.192C55.8239 47.344 54.3599 47.92 52.5119 47.92ZM47.8319 37.192C48.2879 37.12 48.8519 36.904 49.5239 36.544C50.1959 36.16 50.8679 35.584 51.5399 34.816C52.2119 34.048 52.7639 33.04 53.1959 31.792C53.6519 30.52 53.8799 28.96 53.8799 27.112C53.8799 26.848 53.8679 26.596 53.8439 26.356C53.8439 26.092 53.8319 25.816 53.8079 25.528C53.2799 25.12 52.6559 24.808 51.9359 24.592C51.2399 24.376 50.5559 24.268 49.8839 24.268C48.9959 24.268 48.2399 24.436 47.6159 24.772C47.4959 25.372 47.3759 26.176 47.2559 27.184C47.1599 28.192 47.1119 29.392 47.1119 30.784C47.1119 31.528 47.1479 32.344 47.2199 33.232C47.2919 34.096 47.3759 34.888 47.4719 35.608C47.5919 36.328 47.7119 36.856 47.8319 37.192ZM66.4341 31.828L66.6141 26.788H77.4141V30.136L66.4341 31.828ZM91.7893 40.936C90.9493 40.936 89.9533 40.9 88.8013 40.828C87.6493 40.756 86.5573 40.648 85.5253 40.504L83.4733 17.32C84.2173 17.08 85.1533 16.84 86.2813 16.6C87.4333 16.36 88.6573 16.156 89.9533 15.988C91.2493 15.796 92.4853 15.7 93.6613 15.7C94.9333 15.7 96.1933 15.832 97.4413 16.096C98.7133 16.36 99.8533 16.804 100.861 17.428C101.077 18.076 101.233 18.7 101.329 19.3C101.425 19.876 101.473 20.428 101.473 20.956C101.473 22.3 101.173 23.488 100.573 24.52C99.9973 25.528 99.2173 26.404 98.2333 27.148C99.6493 28.252 100.729 29.476 101.473 30.82C102.241 32.164 102.625 33.388 102.625 34.492C102.625 35.644 102.265 36.712 101.545 37.696C100.849 38.656 99.7093 39.436 98.1253 40.036C96.5413 40.636 94.4293 40.936 91.7893 40.936ZM90.3853 28.336C92.0653 27.664 93.3613 26.752 94.2733 25.6C95.1853 24.448 95.6413 23.32 95.6413 22.216C95.6413 21.496 95.4733 20.728 95.1373 19.912C94.8253 19.096 94.3573 18.472 93.7333 18.04C93.4213 18.04 93.0613 18.088 92.6533 18.184C92.2693 18.256 91.8613 18.352 91.4293 18.472L90.3853 28.336ZM92.8693 38.38C93.0613 38.38 93.3373 38.38 93.6973 38.38C94.0573 38.356 94.4173 38.332 94.7773 38.308C95.1373 38.26 95.3893 38.212 95.5333 38.164C95.8213 37.588 96.0973 36.844 96.3613 35.932C96.6493 34.996 96.7933 34 96.7933 32.944C96.7933 32.2 96.6973 31.468 96.5053 30.748C96.3373 30.028 96.0373 29.332 95.6053 28.66C94.7893 29.044 93.9133 29.38 92.9773 29.668C92.0653 29.932 91.1293 30.172 90.1693 30.388L89.3773 37.84C89.9773 38.008 90.5653 38.14 91.1413 38.236C91.7413 38.332 92.3173 38.38 92.8693 38.38ZM109.399 40.54L107.563 22.684L115.267 21.496L114.547 27.256H114.799C115.711 25.264 116.791 23.704 118.039 22.576C119.311 21.424 120.679 20.788 122.143 20.668L121.135 28.336C120.751 28.288 120.379 28.252 120.019 28.228C119.683 28.18 119.347 28.156 119.011 28.156C117.979 28.156 117.091 28.384 116.347 28.84C115.627 29.296 115.027 30.112 114.547 31.288C114.091 32.44 113.731 34.06 113.467 36.148L112.963 40.216L109.399 40.54ZM126.993 40.828C126.849 40.828 126.693 40.828 126.525 40.828C126.381 40.828 126.237 40.816 126.093 40.792C125.277 40.24 124.617 39.424 124.113 38.344C123.633 37.24 123.393 36.1 123.393 34.924C123.393 33.94 123.621 33.124 124.077 32.476C124.533 31.828 125.349 31.348 126.525 31.036C127.725 30.7 129.405 30.532 131.565 30.532C132.093 30.532 132.657 30.556 133.257 30.604C133.857 30.628 134.493 30.688 135.165 30.784L135.093 29.992C134.997 29.008 134.529 28.24 133.689 27.688C132.873 27.136 131.901 26.86 130.773 26.86C130.149 26.86 129.489 26.956 128.793 27.148C128.121 27.34 127.449 27.64 126.777 28.048L125.193 22.828C125.985 22.492 126.993 22.204 128.217 21.964C129.465 21.7 130.749 21.568 132.069 21.568C133.821 21.568 135.345 21.82 136.641 22.324C137.961 22.828 138.981 23.62 139.701 24.7C140.445 25.756 140.817 27.16 140.817 28.912C140.817 29.128 140.805 29.38 140.781 29.668C140.781 29.956 140.769 30.16 140.745 30.28L139.737 40.216L136.173 40.54L135.633 35.32H135.345C134.553 37 133.437 38.344 131.997 39.352C130.581 40.336 128.913 40.828 126.993 40.828ZM129.693 36.796C130.221 36.7 130.845 36.532 131.565 36.292C132.309 36.028 133.017 35.596 133.689 34.996C134.385 34.372 134.925 33.472 135.309 32.296C134.997 32.296 134.685 32.296 134.373 32.296C134.061 32.272 133.737 32.26 133.401 32.26C132.657 32.26 131.985 32.272 131.385 32.296C130.785 32.32 130.161 32.392 129.513 32.512C129.417 32.728 129.309 32.992 129.189 33.304C129.069 33.616 129.009 34.012 129.009 34.492C129.009 34.9 129.081 35.344 129.225 35.824C129.369 36.28 129.525 36.604 129.693 36.796ZM149.028 19.696C148.116 19.696 147.324 19.372 146.652 18.724C146.004 18.052 145.68 17.26 145.68 16.348C145.68 15.436 146.004 14.656 146.652 14.008C147.324 13.336 148.116 13 149.028 13C149.94 13 150.72 13.336 151.368 14.008C152.04 14.656 152.376 15.436 152.376 16.348C152.376 17.26 152.04 18.052 151.368 18.724C150.72 19.372 149.94 19.696 149.028 19.696ZM147.372 40.54L145.536 22.72L153.24 21.532L150.936 40.216L147.372 40.54ZM159.918 40.54L158.082 22.684L165.786 21.496L164.994 27.832H165.318C166.254 25.792 167.334 24.172 168.558 22.972C169.782 21.772 171.066 21.172 172.41 21.172C172.866 21.172 173.31 21.244 173.742 21.388C174.294 22.06 174.762 22.984 175.146 24.16C175.53 25.312 175.842 26.596 176.082 28.012C176.322 29.428 176.502 30.88 176.622 32.368C176.742 33.832 176.826 35.236 176.874 36.58C176.922 37.9 176.946 39.04 176.946 40L170.466 40.54C170.466 38.212 170.442 36.196 170.394 34.492C170.346 32.788 170.274 31.228 170.178 29.812C170.106 28.372 169.998 26.92 169.854 25.456C169.398 25.624 168.87 25.936 168.27 26.392C167.694 26.848 167.106 27.592 166.506 28.624C165.906 29.656 165.342 31.108 164.814 32.98C164.286 34.828 163.842 37.24 163.482 40.216L159.918 40.54Z" fill="#0057FF"/>
<path d="M198 4L184.5 0.5L190.27 35L198 4Z" fill="#0057FF"/>
<path d="M188.932 44.591L184.49 41.0434L186.685 36.0384L192.484 36.4927L193.872 41.7786L188.932 44.591Z" fill="#0057FF"/>
</svg>
