<svg width="372" height="379" viewBox="0 0 372 379" fill="none" xmlns="http://www.w3.org/2000/svg">
<path fill-rule="evenodd" clip-rule="evenodd" d="M186 378.134C288.725 378.134 372 293.452 372 188.99C372 123.702 339.471 66.1396 289.994 32.149C293.262 34.3938 296.455 36.7413 299.57 39.187L299.569 39.1892C330.107 63.1666 353.11 96.5854 364.351 135.145C350.36 154.761 331.045 164.45 312.606 158.397C302.939 155.224 294.739 148.128 288.461 138.388C269.697 151.36 248.338 154.464 230.95 144.429C211.095 132.971 201.543 107.339 203.982 79.0195C186.102 76.0645 172.016 66.669 166.252 51.7312C160.097 35.7803 164.728 16.8735 177.006 0.0634371C177.48 0.0404847 177.955 0.0193361 178.43 0C79.2148 4.03873 0 87.1073 0 188.99C0 293.452 83.275 378.134 186 378.134Z" fill="black"/>
</svg>
