<svg width="467" height="414" viewBox="0 0 467 414" fill="none" xmlns="http://www.w3.org/2000/svg">
<path fill-rule="evenodd" clip-rule="evenodd" d="M231.328 75.1235C212.411 72.0211 197.508 62.1568 191.409 46.4737C185.897 32.2998 188.561 15.9029 197.385 0.498993C101.017 7.58848 25 89.3389 25 189.144C25 293.605 108.275 378.288 211 378.288C313.725 378.288 397 293.605 397 189.144C397 173.859 395.217 158.997 391.851 144.762C378.348 157.954 361.999 163.591 346.253 158.462C336.026 155.13 327.35 147.68 320.708 137.454C300.856 151.073 278.257 154.332 259.861 143.797C238.854 131.767 228.747 104.856 231.328 75.1235Z" fill="#E99543"/>
<path d="M191.212 85.745C186.842 97.7688 174.121 103.338 162.8 98.1846C151.479 93.031 145.845 79.106 150.215 67.0822C154.586 55.0584 167.306 49.4889 178.627 54.6425C189.948 59.7961 195.583 73.7212 191.212 85.745Z" fill="#693502"/>
<path d="M191.212 85.745C186.842 97.7688 174.121 103.338 162.8 98.1846C151.479 93.031 145.845 79.106 150.215 67.0822C154.586 55.0584 167.306 49.4889 178.627 54.6425C189.948 59.7961 195.583 73.7212 191.212 85.745Z" stroke="black"/>
<path d="M324.914 291.564C321.006 302.316 309.632 307.296 299.509 302.687C289.387 298.079 284.348 285.628 288.256 274.877C292.164 264.126 303.539 259.146 313.661 263.754C323.784 268.362 328.822 280.813 324.914 291.564Z" fill="#693502"/>
<path d="M324.914 291.564C321.006 302.316 309.632 307.296 299.509 302.687C289.387 298.079 284.348 285.628 288.256 274.877C292.164 264.126 303.539 259.146 313.661 263.754C323.784 268.362 328.822 280.813 324.914 291.564Z" stroke="black"/>
<path d="M254.734 193.154C250.826 203.905 239.452 208.885 229.329 204.277C219.206 199.669 214.168 187.218 218.076 176.467C221.984 165.716 233.358 160.736 243.481 165.344C253.604 169.952 258.642 182.403 254.734 193.154Z" fill="#693502"/>
<path d="M254.734 193.154C250.826 203.905 239.452 208.885 229.329 204.277C219.206 199.669 214.168 187.218 218.076 176.467C221.984 165.716 233.358 160.736 243.481 165.344C253.604 169.952 258.642 182.403 254.734 193.154Z" stroke="black"/>
<path d="M150.358 243.005C145.742 255.705 133.143 261.968 122.218 256.995C111.292 252.021 106.177 237.694 110.794 224.995C115.41 212.295 128.009 206.032 138.934 211.005C149.86 215.979 154.975 230.306 150.358 243.005Z" fill="#693502"/>
<path d="M150.358 243.005C145.742 255.705 133.143 261.968 122.218 256.995C111.292 252.021 106.177 237.694 110.794 224.995C115.41 212.295 128.009 206.032 138.934 211.005C149.86 215.979 154.975 230.306 150.358 243.005Z" stroke="black"/>
<path d="M204.062 342.855C200.154 353.606 188.78 358.586 178.657 353.978C168.535 349.37 163.497 336.919 167.405 326.167C171.313 315.416 182.687 310.436 192.81 315.044C202.932 319.653 207.97 332.104 204.062 342.855Z" fill="#693502"/>
<path d="M204.062 342.855C200.154 353.606 188.78 358.586 178.657 353.978C168.535 349.37 163.497 336.919 167.405 326.167C171.313 315.416 182.687 310.436 192.81 315.044C202.932 319.653 207.97 332.104 204.062 342.855Z" stroke="black"/>
<path fill-rule="evenodd" clip-rule="evenodd" d="M27.3862 219.547C25.816 209.657 25 199.511 25 189.172C25 180.199 25.6145 171.372 26.8032 162.732C29.4566 163.028 32.1273 163.734 34.7382 164.881C48.8511 171.083 55.8751 187.84 50.4266 202.309C46.5526 212.597 37.4162 218.959 27.3862 219.547Z" fill="#693502"/>
<path fill-rule="evenodd" clip-rule="evenodd" d="M392.421 230.878C395.391 217.46 396.959 203.502 396.959 189.172C396.959 184.192 396.77 179.258 396.398 174.376C385.474 174.038 375.197 180.564 371.024 191.645C365.576 206.114 372.6 222.871 386.713 229.073C388.594 229.9 390.507 230.497 392.421 230.878Z" fill="#693502"/>
<ellipse cx="438" cy="222.599" rx="20.0695" ry="21.8393" transform="rotate(5.29704 438 222.599)" fill="black"/>
<ellipse cx="308.93" cy="92.0003" rx="23" ry="21.9708" transform="rotate(5.29704 308.93 92.0003)" fill="black"/>
<circle cx="186" cy="311" r="25" fill="black"/>
<rect x="434" y="223" width="9" height="83" fill="black"/>
<rect x="311" y="102.66" width="9" height="52.196" transform="rotate(-31.1833 311 102.66)" fill="black"/>
<rect x="181" y="303" width="9" height="83" fill="black"/>
<rect x="167" y="345.469" width="7.59371" height="22.3295" transform="rotate(-36.0514 167 345.469)" fill="black"/>
<rect x="190.276" y="368.617" width="7.59371" height="28.2442" transform="rotate(-145.732 190.276 368.617)" fill="black"/>
<rect x="22.2756" y="273.617" width="7.59371" height="28.2442" transform="rotate(-145.732 22.2756 273.617)" fill="black"/>
<rect x="23.1289" y="275.73" width="7.59371" height="28.2442" transform="rotate(-122.937 23.1289 275.73)" fill="black"/>
<rect x="422.07" y="283.511" width="7.59371" height="28.2442" transform="rotate(-131.888 422.07 283.511)" fill="black"/>
<rect x="299.215" y="134.837" width="7.59371" height="28.2442" transform="rotate(-115.046 299.215 134.837)" fill="black"/>
<rect x="312.426" y="138.937" width="7.59371" height="22.9859" transform="rotate(-122.949 312.426 138.937)" fill="black"/>
<rect x="410.879" y="261.502" width="7.59371" height="28.4629" transform="rotate(-83.5641 410.879 261.502)" fill="black"/>
<rect x="437" y="302.247" width="5.64475" height="28.9122" transform="rotate(-12.7624 437 302.247)" fill="black"/>
<rect x="335" y="135.07" width="5.64475" height="28.9122" transform="rotate(-32.9456 335 135.07)" fill="black"/>
<rect x="337.608" y="139" width="5.78512" height="30.0831" transform="rotate(4.97427 337.608 139)" fill="black"/>
<rect x="433.608" y="299" width="5.78512" height="30.0831" transform="rotate(4.97427 433.608 299)" fill="black"/>
<rect x="184" y="382.247" width="5.64475" height="32.0827" transform="rotate(-12.7624 184 382.247)" fill="black"/>
<rect x="182.059" y="378" width="5.78512" height="35.2773" transform="rotate(4.97427 182.059 378)" fill="black"/>
<circle cx="25" cy="227" r="25" fill="black"/>
<rect x="16" y="221" width="9" height="83" fill="black"/>
<rect x="19" y="298.247" width="5.64475" height="32.0827" transform="rotate(-12.7624 19 298.247)" fill="black"/>
<rect x="17.0588" y="294" width="5.78512" height="35.2773" transform="rotate(4.97427 17.0588 294)" fill="black"/>
<rect x="314.43" y="135.951" width="1.83534" height="219.705" transform="rotate(-31.2191 314.43 135.951)" fill="black"/>
<rect x="372.737" y="230.132" width="1.83534" height="39.6058" transform="rotate(-133.603 372.737 230.132)" fill="black"/>
<rect x="355.266" y="200.644" width="1.83534" height="39.6058" transform="rotate(-133.603 355.266 200.644)" fill="black"/>
<rect x="364.266" y="215.644" width="1.83534" height="39.6058" transform="rotate(-133.603 364.266 215.644)" fill="black"/>
<rect x="423.737" y="313.132" width="1.83534" height="39.6058" transform="rotate(-133.603 423.737 313.132)" fill="black"/>
<rect x="406.266" y="283.644" width="1.83534" height="39.6058" transform="rotate(-133.603 406.266 283.644)" fill="black"/>
<rect x="415.266" y="298.644" width="1.83534" height="39.6058" transform="rotate(-133.603 415.266 298.644)" fill="black"/>
<rect x="396.737" y="271.132" width="1.83534" height="39.6058" transform="rotate(-133.603 396.737 271.132)" fill="black"/>
<rect x="379.266" y="241.644" width="1.83534" height="39.6058" transform="rotate(-133.603 379.266 241.644)" fill="black"/>
<rect x="388.266" y="256.644" width="1.83534" height="39.6058" transform="rotate(-133.603 388.266 256.644)" fill="black"/>
<rect x="345.737" y="187.132" width="1.83534" height="39.6058" transform="rotate(-133.603 345.737 187.132)" fill="black"/>
<rect x="328.266" y="157.644" width="1.83534" height="39.6058" transform="rotate(-133.603 328.266 157.644)" fill="black"/>
<rect x="337.266" y="172.644" width="1.83534" height="39.6058" transform="rotate(-133.603 337.266 172.644)" fill="black"/>
<rect x="351" y="122.951" width="1.83534" height="219.705" transform="rotate(-31.2191 351 122.951)" fill="black"/>
<path d="M302.5 140C281.702 137.594 275.03 132.079 270 116.5L294.5 109L310.5 116.5L302.5 140Z" fill="#E99543"/>
</svg>
