<svg width="205" height="44" viewBox="0 0 205 44" fill="none" xmlns="http://www.w3.org/2000/svg">
<rect x="157.5" y="0.5" width="43" height="43" rx="3.5" fill="#0A66C2" stroke="white"/>
<path d="M166.148 33V17.7273H168.415V20.0341H168.574C168.852 19.2784 169.356 18.6652 170.085 18.1946C170.814 17.724 171.636 17.4886 172.551 17.4886C172.723 17.4886 172.939 17.4919 173.197 17.4986C173.456 17.5052 173.652 17.5152 173.784 17.5284V19.9148C173.705 19.8949 173.522 19.8651 173.237 19.8253C172.959 19.7789 172.664 19.7557 172.352 19.7557C171.61 19.7557 170.947 19.9115 170.364 20.223C169.787 20.5279 169.33 20.9522 168.991 21.4957C168.66 22.0327 168.494 22.6458 168.494 23.3352V33H166.148ZM180.993 27.4318L180.953 24.5284H181.431L188.113 17.7273H191.016L183.897 24.9261H183.698L180.993 27.4318ZM178.806 33V12.6364H181.152V33H178.806ZM188.51 33L182.544 25.4432L184.215 23.8125L191.493 33H188.51Z" fill="white"/>
<path d="M166.148 33H164.648C164.648 33.8284 165.319 34.5 166.148 34.5V33ZM166.148 17.7273V16.2273C165.319 16.2273 164.648 16.8988 164.648 17.7273H166.148ZM168.415 17.7273H169.915C169.915 16.8988 169.243 16.2273 168.415 16.2273V17.7273ZM168.415 20.0341H166.915C166.915 20.8625 167.586 21.5341 168.415 21.5341V20.0341ZM168.574 20.0341V21.5341C169.202 21.5341 169.764 21.1423 169.981 20.5526L168.574 20.0341ZM170.085 18.1946L169.272 16.9343L169.272 16.9343L170.085 18.1946ZM173.784 17.5284H175.284C175.284 16.7578 174.7 16.1125 173.933 16.0359L173.784 17.5284ZM173.784 19.9148L173.42 21.37C173.868 21.482 174.343 21.3813 174.707 21.0971C175.071 20.8128 175.284 20.3767 175.284 19.9148H173.784ZM173.237 19.8253L172.991 21.3049C173.004 21.3071 173.017 21.3091 173.03 21.3109L173.237 19.8253ZM170.364 20.223L171.065 21.5491L171.07 21.5461L170.364 20.223ZM168.991 21.4957L167.718 20.7035L167.715 20.7078L168.991 21.4957ZM168.494 33V34.5C169.323 34.5 169.994 33.8284 169.994 33H168.494ZM167.648 33V17.7273H164.648V33H167.648ZM166.148 19.2273H168.415V16.2273H166.148V19.2273ZM166.915 17.7273V20.0341H169.915V17.7273H166.915ZM168.415 21.5341H168.574V18.5341H168.415V21.5341ZM169.981 20.5526C170.138 20.1263 170.42 19.7637 170.899 19.4549L169.272 16.9343C168.292 17.5668 167.566 18.4305 167.166 19.5155L169.981 20.5526ZM170.899 19.4549C171.372 19.1494 171.909 18.9886 172.551 18.9886V15.9886C171.364 15.9886 170.257 16.2985 169.272 16.9343L170.899 19.4549ZM172.551 18.9886C172.706 18.9886 172.908 18.9916 173.159 18.9981L173.236 15.9991C172.97 15.9923 172.741 15.9886 172.551 15.9886V18.9886ZM173.159 18.9981C173.408 19.0045 173.559 19.0134 173.635 19.021L173.933 16.0359C173.744 16.0169 173.504 16.0059 173.236 15.9991L173.159 18.9981ZM172.284 17.5284V19.9148H175.284V17.5284H172.284ZM174.148 18.4596C173.975 18.4164 173.707 18.3763 173.445 18.3397L173.03 21.3109C173.166 21.3299 173.27 21.3455 173.345 21.3578C173.383 21.3639 173.409 21.3685 173.425 21.3717C173.445 21.3754 173.44 21.3749 173.42 21.37L174.148 18.4596ZM173.484 18.3457C173.116 18.2844 172.738 18.2557 172.352 18.2557V21.2557C172.59 21.2557 172.802 21.2734 172.991 21.3049L173.484 18.3457ZM172.352 18.2557C171.394 18.2557 170.483 18.4586 169.657 18.8999L171.07 21.5461C171.411 21.3643 171.826 21.2557 172.352 21.2557V18.2557ZM169.663 18.897C168.856 19.3235 168.199 19.93 167.718 20.7035L170.265 22.2879C170.46 21.9744 170.718 21.7324 171.065 21.5491L169.663 18.897ZM167.715 20.7078C167.224 21.5033 166.994 22.3942 166.994 23.3352H169.994C169.994 22.8975 170.096 22.5621 170.268 22.2836L167.715 20.7078ZM166.994 23.3352V33H169.994V23.3352H166.994ZM168.494 31.5H166.148V34.5H168.494V31.5ZM180.993 27.4318L179.493 27.4524C179.501 28.0449 179.858 28.5771 180.402 28.8105C180.947 29.044 181.578 28.9349 182.013 28.5322L180.993 27.4318ZM180.953 24.5284V23.0284C180.552 23.0284 180.167 23.1893 179.886 23.475C179.604 23.7608 179.448 24.1476 179.454 24.549L180.953 24.5284ZM181.431 24.5284V26.0284C181.833 26.0284 182.219 25.8667 182.501 25.5796L181.431 24.5284ZM188.113 17.7273V16.2273C187.71 16.2273 187.325 16.389 187.043 16.676L188.113 17.7273ZM191.016 17.7273L192.082 18.782C192.508 18.3517 192.633 17.7079 192.4 17.1494C192.167 16.5909 191.621 16.2273 191.016 16.2273V17.7273ZM183.897 24.9261V26.4261C184.297 26.4261 184.681 26.2658 184.963 25.9809L183.897 24.9261ZM183.698 24.9261V23.4261C183.32 23.4261 182.956 23.5689 182.678 23.8258L183.698 24.9261ZM178.806 33H177.306C177.306 33.8284 177.977 34.5 178.806 34.5V33ZM178.806 12.6364V11.1364C177.977 11.1364 177.306 11.8079 177.306 12.6364H178.806ZM181.152 12.6364H182.652C182.652 11.8079 181.981 11.1364 181.152 11.1364V12.6364ZM181.152 33V34.5C181.981 34.5 182.652 33.8284 182.652 33H181.152ZM188.51 33L187.333 33.9295C187.617 34.2898 188.051 34.5 188.51 34.5V33ZM182.544 25.4432L181.497 24.3698C180.947 24.906 180.891 25.7702 181.367 26.3726L182.544 25.4432ZM184.215 23.8125L185.391 22.8811C185.127 22.5481 184.734 22.3426 184.31 22.3155C183.886 22.2885 183.471 22.4424 183.167 22.7391L184.215 23.8125ZM191.493 33V34.5C192.069 34.5 192.593 34.1709 192.844 33.653C193.094 33.1351 193.026 32.5195 192.669 32.0686L191.493 33ZM182.493 27.4113L182.453 24.5079L179.454 24.549L179.493 27.4524L182.493 27.4113ZM180.953 26.0284H181.431V23.0284H180.953V26.0284ZM182.501 25.5796L189.183 18.7785L187.043 16.676L180.361 23.4772L182.501 25.5796ZM188.113 19.2273H191.016V16.2273H188.113V19.2273ZM189.949 16.6725L182.83 23.8714L184.963 25.9809L192.082 18.782L189.949 16.6725ZM183.897 23.4261H183.698V26.4261H183.897V23.4261ZM182.678 23.8258L179.974 26.3315L182.013 28.5322L184.717 26.0265L182.678 23.8258ZM180.306 33V12.6364H177.306V33H180.306ZM178.806 14.1364H181.152V11.1364H178.806V14.1364ZM179.652 12.6364V33H182.652V12.6364H179.652ZM181.152 31.5H178.806V34.5H181.152V31.5ZM189.688 32.0705L183.722 24.5137L181.367 26.3726L187.333 33.9295L189.688 32.0705ZM183.592 26.5165L185.263 24.8859L183.167 22.7391L181.497 24.3698L183.592 26.5165ZM183.039 24.7439L190.317 33.9314L192.669 32.0686L185.391 22.8811L183.039 24.7439ZM191.493 31.5H188.51V34.5H191.493V31.5Z" fill="white"/>
<path d="M2.46591 33V12.6364H4.93182V30.8125H14.3977V33H2.46591ZM29.7627 26.7557V17.7273H32.1093V33H29.7627V30.4148H29.6036C29.2457 31.1903 28.6889 31.8499 27.9332 32.3935C27.1775 32.9304 26.223 33.1989 25.0695 33.1989C24.115 33.1989 23.2665 32.9901 22.5241 32.5724C21.7817 32.1482 21.1983 31.5118 20.7741 30.6634C20.3498 29.8082 20.1377 28.7311 20.1377 27.4318V17.7273H22.4843V27.2727C22.4843 28.3864 22.7959 29.2746 23.419 29.9375C24.0487 30.6004 24.8508 30.9318 25.8252 30.9318C26.4086 30.9318 27.0018 30.7827 27.6051 30.4844C28.2149 30.1861 28.7253 29.7287 29.1363 29.1122C29.5539 28.4957 29.7627 27.7102 29.7627 26.7557ZM38.6473 33V17.7273H40.9143V20.0341H41.0734C41.3518 19.2784 41.8556 18.6652 42.5848 18.1946C43.3139 17.724 44.1359 17.4886 45.0507 17.4886C45.223 17.4886 45.4385 17.4919 45.697 17.4986C45.9555 17.5052 46.151 17.5152 46.2836 17.5284V19.9148C46.2041 19.8949 46.0218 19.8651 45.7367 19.8253C45.4583 19.7789 45.1634 19.7557 44.8518 19.7557C44.1094 19.7557 43.4465 19.9115 42.8632 20.223C42.2865 20.5279 41.8291 20.9522 41.491 21.4957C41.1596 22.0327 40.9938 22.6458 40.9938 23.3352V33H38.6473ZM53.4927 27.4318L53.453 24.5284H53.9302L60.612 17.7273H63.5155L56.3961 24.9261H56.1973L53.4927 27.4318ZM51.3052 33V12.6364H53.6518V33H51.3052ZM61.0098 33L55.0439 25.4432L56.7143 23.8125L63.9927 33H61.0098ZM75.5768 17.7273V19.7159H67.3439V17.7273H75.5768ZM69.8098 33V15.6193C69.8098 14.7443 70.0153 14.0152 70.4263 13.4318C70.8372 12.8485 71.3709 12.411 72.0271 12.1193C72.6834 11.8277 73.3761 11.6818 74.1052 11.6818C74.6819 11.6818 75.1526 11.7282 75.5172 11.821C75.8818 11.9138 76.1535 12 76.3325 12.0795L75.6564 14.108C75.5371 14.0682 75.3713 14.0185 75.1592 13.9588C74.9537 13.8991 74.6819 13.8693 74.3439 13.8693C73.5683 13.8693 73.0082 14.0649 72.6635 14.456C72.3254 14.8471 72.1564 15.4205 72.1564 16.1761V33H69.8098ZM86.6812 33.3182C85.3024 33.3182 84.0926 32.9901 83.0519 32.3338C82.0178 31.6776 81.2091 30.7595 80.6258 29.5795C80.0491 28.3996 79.7607 27.0208 79.7607 25.4432C79.7607 23.8523 80.0491 22.4635 80.6258 21.277C81.2091 20.0904 82.0178 19.169 83.0519 18.5128C84.0926 17.8565 85.3024 17.5284 86.6812 17.5284C88.06 17.5284 89.2664 17.8565 90.3005 18.5128C91.3412 19.169 92.1499 20.0904 92.7266 21.277C93.31 22.4635 93.6016 23.8523 93.6016 25.4432C93.6016 27.0208 93.31 28.3996 92.7266 29.5795C92.1499 30.7595 91.3412 31.6776 90.3005 32.3338C89.2664 32.9901 88.06 33.3182 86.6812 33.3182ZM86.6812 31.2102C87.7285 31.2102 88.5903 30.9418 89.2664 30.4048C89.9425 29.8679 90.443 29.1619 90.7678 28.2869C91.0926 27.4119 91.255 26.464 91.255 25.4432C91.255 24.4223 91.0926 23.4711 90.7678 22.5895C90.443 21.7079 89.9425 20.9953 89.2664 20.4517C88.5903 19.9081 87.7285 19.6364 86.6812 19.6364C85.6338 19.6364 84.7721 19.9081 84.0959 20.4517C83.4198 20.9953 82.9193 21.7079 82.5945 22.5895C82.2697 23.4711 82.1073 24.4223 82.1073 25.4432C82.1073 26.464 82.2697 27.4119 82.5945 28.2869C82.9193 29.1619 83.4198 29.8679 84.0959 30.4048C84.7721 30.9418 85.6338 31.2102 86.6812 31.2102ZM99.4237 33V17.7273H101.691V20.0341H101.85C102.128 19.2784 102.632 18.6652 103.361 18.1946C104.09 17.724 104.912 17.4886 105.827 17.4886C105.999 17.4886 106.215 17.4919 106.473 17.4986C106.732 17.5052 106.927 17.5152 107.06 17.5284V19.9148C106.98 19.8949 106.798 19.8651 106.513 19.8253C106.235 19.7789 105.94 19.7557 105.628 19.7557C104.886 19.7557 104.223 19.9115 103.64 20.223C103.063 20.5279 102.605 20.9522 102.267 21.4957C101.936 22.0327 101.77 22.6458 101.77 23.3352V33H99.4237ZM116.099 33L110.53 12.6364H113.036L117.292 29.2216H117.491L121.826 12.6364H124.61L128.945 29.2216H129.144L133.4 12.6364H135.905L130.337 33H127.792L123.298 16.7727H123.138L118.644 33H116.099ZM145.682 33.3182C144.304 33.3182 143.094 32.9901 142.053 32.3338C141.019 31.6776 140.21 30.7595 139.627 29.5795C139.05 28.3996 138.762 27.0208 138.762 25.4432C138.762 23.8523 139.05 22.4635 139.627 21.277C140.21 20.0904 141.019 19.169 142.053 18.5128C143.094 17.8565 144.304 17.5284 145.682 17.5284C147.061 17.5284 148.268 17.8565 149.302 18.5128C150.342 19.169 151.151 20.0904 151.728 21.277C152.311 22.4635 152.603 23.8523 152.603 25.4432C152.603 27.0208 152.311 28.3996 151.728 29.5795C151.151 30.7595 150.342 31.6776 149.302 32.3338C148.268 32.9901 147.061 33.3182 145.682 33.3182ZM145.682 31.2102C146.73 31.2102 147.592 30.9418 148.268 30.4048C148.944 29.8679 149.444 29.1619 149.769 28.2869C150.094 27.4119 150.256 26.464 150.256 25.4432C150.256 24.4223 150.094 23.4711 149.769 22.5895C149.444 21.7079 148.944 20.9953 148.268 20.4517C147.592 19.9081 146.73 19.6364 145.682 19.6364C144.635 19.6364 143.773 19.9081 143.097 20.4517C142.421 20.9953 141.921 21.7079 141.596 22.5895C141.271 23.4711 141.109 24.4223 141.109 25.4432C141.109 26.464 141.271 27.4119 141.596 28.2869C141.921 29.1619 142.421 29.8679 143.097 30.4048C143.773 30.9418 144.635 31.2102 145.682 31.2102Z" fill="black"/>
<path d="M2.46591 33H1.46591C1.46591 33.5523 1.91362 34 2.46591 34V33ZM2.46591 12.6364V11.6364C1.91362 11.6364 1.46591 12.0841 1.46591 12.6364H2.46591ZM4.93182 12.6364H5.93182C5.93182 12.0841 5.4841 11.6364 4.93182 11.6364V12.6364ZM4.93182 30.8125H3.93182C3.93182 31.3648 4.37953 31.8125 4.93182 31.8125V30.8125ZM14.3977 30.8125H15.3977C15.3977 30.2602 14.95 29.8125 14.3977 29.8125V30.8125ZM14.3977 33V34C14.95 34 15.3977 33.5523 15.3977 33H14.3977ZM3.46591 33V12.6364H1.46591V33H3.46591ZM2.46591 13.6364H4.93182V11.6364H2.46591V13.6364ZM3.93182 12.6364V30.8125H5.93182V12.6364H3.93182ZM4.93182 31.8125H14.3977V29.8125H4.93182V31.8125ZM13.3977 30.8125V33H15.3977V30.8125H13.3977ZM14.3977 32H2.46591V34H14.3977V32ZM29.7627 17.7273V16.7273C29.2104 16.7273 28.7627 17.175 28.7627 17.7273H29.7627ZM32.1093 17.7273H33.1093C33.1093 17.175 32.6616 16.7273 32.1093 16.7273V17.7273ZM32.1093 33V34C32.6616 34 33.1093 33.5523 33.1093 33H32.1093ZM29.7627 33H28.7627C28.7627 33.5523 29.2104 34 29.7627 34V33ZM29.7627 30.4148H30.7627C30.7627 29.8625 30.315 29.4148 29.7627 29.4148V30.4148ZM29.6036 30.4148V29.4148C29.2136 29.4148 28.8591 29.6416 28.6957 29.9957L29.6036 30.4148ZM27.9332 32.3935L28.5124 33.2087L28.5171 33.2053L27.9332 32.3935ZM22.5241 32.5724L22.0279 33.4407L22.0338 33.444L22.5241 32.5724ZM20.7741 30.6634L19.8783 31.1078L19.8797 31.1106L20.7741 30.6634ZM20.1377 17.7273V16.7273C19.5854 16.7273 19.1377 17.175 19.1377 17.7273H20.1377ZM22.4843 17.7273H23.4843C23.4843 17.175 23.0366 16.7273 22.4843 16.7273V17.7273ZM23.419 29.9375L22.6903 30.6224L22.694 30.6262L23.419 29.9375ZM27.6051 30.4844L27.1657 29.5861L27.1618 29.588L27.6051 30.4844ZM29.1363 29.1122L28.3084 28.5514L28.3043 28.5575L29.1363 29.1122ZM30.7627 26.7557V17.7273H28.7627V26.7557H30.7627ZM29.7627 18.7273H32.1093V16.7273H29.7627V18.7273ZM31.1093 17.7273V33H33.1093V17.7273H31.1093ZM32.1093 32H29.7627V34H32.1093V32ZM30.7627 33V30.4148H28.7627V33H30.7627ZM29.7627 29.4148H29.6036V31.4148H29.7627V29.4148ZM28.6957 29.9957C28.4164 30.6007 27.9778 31.1296 27.3493 31.5817L28.5171 33.2053C29.4 32.5702 30.0749 31.7799 30.5116 30.8338L28.6957 29.9957ZM27.354 31.5783C26.8049 31.9684 26.0666 32.1989 25.0695 32.1989V34.1989C26.3793 34.1989 27.5501 33.8924 28.5124 33.2086L27.354 31.5783ZM25.0695 32.1989C24.2656 32.1989 23.5897 32.0245 23.0144 31.7009L22.0338 33.444C22.9433 33.9556 23.9644 34.1989 25.0695 34.1989V32.1989ZM23.0202 31.7042C22.4677 31.3885 22.0145 30.9081 21.6685 30.2161L19.8797 31.1106C20.3822 32.1156 21.0956 32.9079 22.028 33.4407L23.0202 31.7042ZM21.6699 30.2189C21.3343 29.5425 21.1377 28.6297 21.1377 27.4318H19.1377C19.1377 28.8324 19.3654 30.0739 19.8783 31.1078L21.6699 30.2189ZM21.1377 27.4318V17.7273H19.1377V27.4318H21.1377ZM20.1377 18.7273H22.4843V16.7273H20.1377V18.7273ZM21.4843 17.7273V27.2727H23.4843V17.7273H21.4843ZM21.4843 27.2727C21.4843 28.5808 21.8557 29.7345 22.6903 30.6224L24.1476 29.2526C23.736 28.8147 23.4843 28.1919 23.4843 27.2727H21.4843ZM22.694 30.6262C23.5259 31.502 24.5968 31.9318 25.8252 31.9318V29.9318C25.1048 29.9318 24.5715 29.6988 24.144 29.2488L22.694 30.6262ZM25.8252 31.9318C26.5843 31.9318 27.3285 31.7367 28.0483 31.3808L27.1618 29.588C26.6752 29.8286 26.2328 29.9318 25.8252 29.9318V31.9318ZM28.0444 31.3827C28.8276 30.9996 29.4684 30.4168 29.9684 29.6669L28.3043 28.5575C27.9822 29.0406 27.6022 29.3726 27.1657 29.5861L28.0444 31.3827ZM29.9642 29.6731C30.5218 28.85 30.7627 27.8541 30.7627 26.7557H28.7627C28.7627 27.5664 28.5861 28.1415 28.3084 28.5514L29.9642 29.6731ZM38.6473 33H37.6473C37.6473 33.5523 38.095 34 38.6473 34V33ZM38.6473 17.7273V16.7273C38.095 16.7273 37.6473 17.175 37.6473 17.7273H38.6473ZM40.9143 17.7273H41.9143C41.9143 17.175 41.4666 16.7273 40.9143 16.7273V17.7273ZM40.9143 20.0341H39.9143C39.9143 20.5864 40.362 21.0341 40.9143 21.0341V20.0341ZM41.0734 20.0341V21.0341C41.4924 21.0341 41.8669 20.7729 42.0117 20.3798L41.0734 20.0341ZM42.5848 18.1946L42.0425 17.3544V17.3544L42.5848 18.1946ZM46.2836 17.5284H47.2836C47.2836 17.0147 46.8943 16.5845 46.3831 16.5334L46.2836 17.5284ZM46.2836 19.9148L46.0411 20.8849C46.3398 20.9596 46.6563 20.8925 46.899 20.703C47.1418 20.5135 47.2836 20.2227 47.2836 19.9148H46.2836ZM45.7367 19.8253L45.5723 20.8117C45.5811 20.8131 45.5898 20.8145 45.5986 20.8157L45.7367 19.8253ZM42.8632 20.223L43.3306 21.1071L43.3343 21.1051L42.8632 20.223ZM41.491 21.4957L40.6418 20.9676L40.6401 20.9705L41.491 21.4957ZM40.9939 33V34C41.5461 34 41.9939 33.5523 41.9939 33H40.9939ZM39.6473 33V17.7273H37.6473V33H39.6473ZM38.6473 18.7273H40.9143V16.7273H38.6473V18.7273ZM39.9143 17.7273V20.0341H41.9143V17.7273H39.9143ZM40.9143 21.0341H41.0734V19.0341H40.9143V21.0341ZM42.0117 20.3798C42.2093 19.8437 42.565 19.3976 43.1271 19.0348L42.0425 17.3544C41.1462 17.9329 40.4943 18.7132 40.1351 19.6884L42.0117 20.3798ZM43.1271 19.0348C43.6857 18.6742 44.3174 18.4886 45.0507 18.4886V16.4886C43.9544 16.4886 42.9422 16.7737 42.0425 17.3544L43.1271 19.0348ZM45.0507 18.4886C45.2114 18.4886 45.4176 18.4917 45.6713 18.4983L45.7226 16.4989C45.4593 16.4922 45.2346 16.4886 45.0507 16.4886V18.4886ZM45.6713 18.4983C45.9235 18.5047 46.0893 18.514 46.1841 18.5234L46.3831 16.5334C46.2128 16.5163 45.9875 16.5057 45.7226 16.4989L45.6713 18.4983ZM45.2836 17.5284V19.9148H47.2836V17.5284H45.2836ZM46.5262 18.9446C46.3845 18.9092 46.1451 18.8726 45.8749 18.8349L45.5986 20.8157C45.7371 20.835 45.8454 20.8512 45.9258 20.8644C46.0147 20.8789 46.0448 20.8858 46.0411 20.8849L46.5262 18.9446ZM45.9011 18.8389C45.5631 18.7826 45.2128 18.7557 44.8518 18.7557V20.7557C45.1139 20.7557 45.3535 20.7752 45.5723 20.8117L45.9011 18.8389ZM44.8518 18.7557C43.9655 18.7557 43.1374 18.9429 42.3921 19.3409L43.3343 21.1051C43.7556 20.88 44.2533 20.7557 44.8518 20.7557V18.7557ZM42.3957 19.339C41.6657 19.725 41.0753 20.2707 40.6418 20.9676L42.3402 22.0239C42.5829 21.6336 42.9072 21.3309 43.3306 21.107L42.3957 19.339ZM40.6401 20.9705C40.2022 21.6797 39.9939 22.4781 39.9939 23.3352H41.9939C41.9939 22.8136 42.1169 22.3856 42.3419 22.021L40.6401 20.9705ZM39.9939 23.3352V33H41.9939V23.3352H39.9939ZM40.9939 32H38.6473V34H40.9939V32ZM53.4927 27.4318L52.4928 27.4455C52.4982 27.8405 52.7357 28.1953 53.0988 28.351C53.4619 28.5066 53.8826 28.4339 54.1724 28.1654L53.4927 27.4318ZM53.453 24.5284V23.5284C53.1854 23.5284 52.9289 23.6357 52.741 23.8262C52.5531 24.0167 52.4494 24.2745 52.453 24.5421L53.453 24.5284ZM53.9302 24.5284V25.5284C54.1985 25.5284 54.4555 25.4206 54.6436 25.2292L53.9302 24.5284ZM60.612 17.7273V16.7273C60.3438 16.7273 60.0867 16.8351 59.8987 17.0265L60.612 17.7273ZM63.5155 17.7273L64.2265 18.4304C64.5102 18.1436 64.5937 17.7143 64.4383 17.342C64.2828 16.9697 63.9189 16.7273 63.5155 16.7273V17.7273ZM56.3961 24.9261V25.9261C56.6633 25.9261 56.9193 25.8192 57.1072 25.6293L56.3961 24.9261ZM56.1973 24.9261V23.9261C55.9453 23.9261 55.7025 24.0213 55.5177 24.1926L56.1973 24.9261ZM51.3052 33H50.3052C50.3052 33.5523 50.7529 34 51.3052 34V33ZM51.3052 12.6364V11.6364C50.7529 11.6364 50.3052 12.0841 50.3052 12.6364H51.3052ZM53.6518 12.6364H54.6518C54.6518 12.0841 54.2041 11.6364 53.6518 11.6364V12.6364ZM53.6518 33V34C54.2041 34 54.6518 33.5523 54.6518 33H53.6518ZM61.0098 33L60.2249 33.6196C60.4145 33.8599 60.7037 34 61.0098 34V33ZM55.0439 25.4432L54.3453 24.7276C53.9792 25.085 53.9419 25.6612 54.259 26.0628L55.0439 25.4432ZM56.7143 23.8125L57.4982 23.1915C57.3223 22.9696 57.0606 22.8326 56.778 22.8145C56.4954 22.7965 56.2184 22.8991 56.0158 23.0969L56.7143 23.8125ZM63.9927 33V34C64.3763 34 64.726 33.7806 64.893 33.4353C65.06 33.09 65.0147 32.6797 64.7766 32.379L63.9927 33ZM54.4926 27.4181L54.4529 24.5147L52.453 24.5421L52.4928 27.4455L54.4926 27.4181ZM53.453 25.5284H53.9302V23.5284H53.453V25.5284ZM54.6436 25.2292L61.3254 18.4281L59.8987 17.0265L53.2169 23.8276L54.6436 25.2292ZM60.612 18.7273H63.5155V16.7273H60.612V18.7273ZM62.8044 17.0241L55.6851 24.223L57.1072 25.6293L64.2265 18.4304L62.8044 17.0241ZM56.3961 23.9261H56.1973V25.9261H56.3961V23.9261ZM55.5177 24.1926L52.8131 26.6983L54.1724 28.1654L56.8769 25.6597L55.5177 24.1926ZM52.3052 33V12.6364H50.3052V33H52.3052ZM51.3052 13.6364H53.6518V11.6364H51.3052V13.6364ZM52.6518 12.6364V33H54.6518V12.6364H52.6518ZM53.6518 32H51.3052V34H53.6518V32ZM61.7947 32.3804L55.8287 24.8235L54.259 26.0628L60.2249 33.6196L61.7947 32.3804ZM55.7424 26.1588L57.4129 24.5281L56.0158 23.0969L54.3453 24.7276L55.7424 26.1588ZM55.9305 24.4335L63.2089 33.621L64.7766 32.379L57.4982 23.1915L55.9305 24.4335ZM63.9927 32H61.0098V34H63.9927V32ZM75.5768 17.7273H76.5768C76.5768 17.175 76.1291 16.7273 75.5768 16.7273V17.7273ZM75.5768 19.7159V20.7159C76.1291 20.7159 76.5768 20.2682 76.5768 19.7159H75.5768ZM67.3439 19.7159H66.3439C66.3439 20.2682 66.7916 20.7159 67.3439 20.7159V19.7159ZM67.3439 17.7273V16.7273C66.7916 16.7273 66.3439 17.175 66.3439 17.7273H67.3439ZM69.8098 33H68.8098C68.8098 33.5523 69.2575 34 69.8098 34V33ZM70.4263 13.4318L69.6088 12.8559L70.4263 13.4318ZM72.0271 12.1193L71.621 11.2055L72.0271 12.1193ZM75.5172 11.821L75.2705 12.7901V12.7901L75.5172 11.821ZM76.3325 12.0795L77.2812 12.3958C77.444 11.9072 77.2092 11.3749 76.7387 11.1657L76.3325 12.0795ZM75.6564 14.108L75.3401 15.0566C75.5918 15.1405 75.8664 15.121 76.1036 15.0024C76.3408 14.8838 76.5212 14.6758 76.6051 14.4242L75.6564 14.108ZM75.1592 13.9588L74.8804 14.9192L74.8885 14.9215L75.1592 13.9588ZM72.6635 14.456L71.9132 13.7947L71.9069 13.802L72.6635 14.456ZM72.1564 33V34C72.7087 34 73.1564 33.5523 73.1564 33H72.1564ZM74.5768 17.7273V19.7159H76.5768V17.7273H74.5768ZM75.5768 18.7159H67.3439V20.7159H75.5768V18.7159ZM68.3439 19.7159V17.7273H66.3439V19.7159H68.3439ZM67.3439 18.7273H75.5768V16.7273H67.3439V18.7273ZM70.8098 33V15.6193H68.8098V33H70.8098ZM70.8098 15.6193C70.8098 14.9032 70.9761 14.3876 71.2437 14.0078L69.6088 12.8559C69.0544 13.6427 68.8098 14.5854 68.8098 15.6193H70.8098ZM71.2437 14.0078C71.55 13.5731 71.941 13.2519 72.4333 13.0331L71.621 11.2055C70.8007 11.5701 70.1245 12.1238 69.6088 12.8559L71.2437 14.0078ZM72.4333 13.0331C72.9596 12.7992 73.5138 12.6818 74.1052 12.6818V10.6818C73.2384 10.6818 72.4071 10.8561 71.621 11.2055L72.4333 13.0331ZM74.1052 12.6818C74.6379 12.6818 75.0172 12.7257 75.2705 12.7901L75.7639 10.8519C75.2879 10.7308 74.726 10.6818 74.1052 10.6818V12.6818ZM75.2705 12.7901C75.6205 12.8792 75.8264 12.9489 75.9264 12.9934L76.7387 11.1657C76.4807 11.0511 76.143 10.9484 75.7638 10.8519L75.2705 12.7901ZM75.3838 11.7633L74.7077 13.7917L76.6051 14.4242L77.2812 12.3958L75.3838 11.7633ZM75.9726 13.1593C75.8311 13.1121 75.6479 13.0574 75.43 12.9962L74.8885 14.9215C75.0948 14.9795 75.243 15.0242 75.3401 15.0566L75.9726 13.1593ZM75.438 12.9985C75.1053 12.9018 74.7284 12.8693 74.3439 12.8693V14.8693C74.6355 14.8693 74.8022 14.8964 74.8804 14.9192L75.438 12.9985ZM74.3439 12.8693C73.4228 12.8693 72.5248 13.1009 71.9133 13.7948L73.4137 15.1172C73.4916 15.0288 73.7138 14.8693 74.3439 14.8693V12.8693ZM71.9069 13.802C71.3531 14.4427 71.1564 15.2887 71.1564 16.1761H73.1564C73.1564 15.5522 73.2977 15.2514 73.42 15.1099L71.9069 13.802ZM71.1564 16.1761V33H73.1564V16.1761H71.1564ZM72.1564 32H69.8098V34H72.1564V32ZM83.0519 32.3338L82.5161 33.1781L82.5185 33.1797L83.0519 32.3338ZM80.6258 29.5795L79.7273 30.0187L79.7293 30.0227L80.6258 29.5795ZM80.6258 21.277L79.7284 20.8358L79.7264 20.8399L80.6258 21.277ZM83.0519 18.5128L82.5185 17.6669L82.5161 17.6685L83.0519 18.5128ZM90.3005 18.5128L89.7647 19.3571L89.7671 19.3587L90.3005 18.5128ZM92.7266 21.277L91.8272 21.7141L91.8292 21.7182L92.7266 21.277ZM92.7266 29.5795L91.8302 29.1364L91.8282 29.1404L92.7266 29.5795ZM90.3005 32.3338L89.7671 31.4879L89.7647 31.4895L90.3005 32.3338ZM89.2664 30.4048L88.6445 29.6217L89.2664 30.4048ZM90.7678 28.2869L91.7053 28.6349L90.7678 28.2869ZM90.7678 22.5895L91.7062 22.2438L90.7678 22.5895ZM89.2664 20.4517L89.893 19.6723L89.2664 20.4517ZM84.0959 20.4517L83.4694 19.6723L84.0959 20.4517ZM82.5945 22.5895L81.6562 22.2438H81.6562L82.5945 22.5895ZM82.5945 28.2869L81.657 28.6349L82.5945 28.2869ZM84.0959 30.4048L84.7178 29.6217L84.0959 30.4048ZM86.6812 32.3182C85.4677 32.3182 84.4476 32.0317 83.5853 31.4879L82.5185 33.1797C83.7377 33.9484 85.1371 34.3182 86.6812 34.3182V32.3182ZM83.5877 31.4895C82.7199 30.9387 82.0307 30.1648 81.5222 29.1364L79.7293 30.0227C80.3876 31.3541 81.3157 32.4164 82.5161 33.1781L83.5877 31.4895ZM81.5242 29.1404C81.0265 28.122 80.7607 26.8989 80.7607 25.4432H78.7607C78.7607 27.1428 79.0717 28.6772 79.7273 30.0187L81.5242 29.1404ZM80.7607 25.4432C80.7607 23.973 81.0269 22.7393 81.5252 21.7141L79.7264 20.8399C79.0712 22.1878 78.7607 23.7316 78.7607 25.4432H80.7607ZM81.5232 21.7182C82.0321 20.6831 82.7213 19.907 83.5877 19.3571L82.5161 17.6685C81.3143 18.4311 80.3862 19.4978 79.7284 20.8358L81.5232 21.7182ZM83.5853 19.3587C84.4476 18.8149 85.4677 18.5284 86.6812 18.5284V16.5284C85.1371 16.5284 83.7377 16.8981 82.5185 17.6669L83.5853 19.3587ZM86.6812 18.5284C87.8948 18.5284 88.9104 18.815 89.7647 19.3571L90.8363 17.6685C89.6225 16.8981 88.2252 16.5284 86.6812 16.5284V18.5284ZM89.7671 19.3587C90.6386 19.9082 91.3259 20.6827 91.8272 21.7141L93.626 20.8399C92.9739 19.4982 92.0438 18.4298 90.8339 17.6669L89.7671 19.3587ZM91.8292 21.7182C92.3327 22.7423 92.6016 23.9745 92.6016 25.4432H94.6016C94.6016 23.73 94.2872 22.1848 93.624 20.8358L91.8292 21.7182ZM92.6016 25.4432C92.6016 26.8973 92.3332 28.119 91.8302 29.1364L93.6231 30.0227C94.2868 28.6803 94.6016 27.1444 94.6016 25.4432H92.6016ZM91.8282 29.1404C91.3273 30.1652 90.6401 30.9375 89.7671 31.4879L90.8339 33.1797C92.0424 32.4176 92.9725 31.3537 93.6251 30.0187L91.8282 29.1404ZM89.7647 31.4895C88.9104 32.0316 87.8948 32.3182 86.6812 32.3182V34.3182C88.2252 34.3182 89.6225 33.9485 90.8363 33.1781L89.7647 31.4895ZM86.6812 32.2102C87.9047 32.2102 89 31.8934 89.8883 31.1879L88.6445 29.6217C88.1806 29.9902 87.5524 30.2102 86.6812 30.2102V32.2102ZM89.8883 31.1879C90.7189 30.5283 91.3223 29.6667 91.7053 28.6349L89.8303 27.9389C89.5637 28.6572 89.1662 29.2075 88.6445 29.6217L89.8883 31.1879ZM91.7053 28.6349C92.0752 27.6386 92.255 26.5717 92.255 25.4432H90.255C90.255 26.3564 90.1101 27.1853 89.8303 27.9389L91.7053 28.6349ZM92.255 25.4432C92.255 24.3146 92.0751 23.2453 91.7062 22.2438L89.8295 22.9352C90.1101 23.6969 90.255 24.5301 90.255 25.4432H92.255ZM91.7062 22.2438C91.3241 21.2066 90.7221 20.3389 89.893 19.6723L88.6398 21.2311C89.163 21.6516 89.562 22.2091 89.8295 22.9352L91.7062 22.2438ZM89.893 19.6723C89.0045 18.9581 87.9075 18.6364 86.6812 18.6364V20.6364C87.5495 20.6364 88.176 20.8582 88.6398 21.2311L89.893 19.6723ZM86.6812 18.6364C85.4548 18.6364 84.3578 18.9581 83.4694 19.6723L84.7225 21.2311C85.1863 20.8582 85.8128 20.6364 86.6812 20.6364V18.6364ZM83.4694 19.6723C82.6403 20.3389 82.0383 21.2066 81.6562 22.2438L83.5329 22.9352C83.8004 22.2091 84.1994 21.6516 84.7225 21.2311L83.4694 19.6723ZM81.6562 22.2438C81.2872 23.2453 81.1073 24.3146 81.1073 25.4432H83.1073C83.1073 24.5301 83.2522 23.6969 83.5329 22.9352L81.6562 22.2438ZM81.1073 25.4432C81.1073 26.5717 81.2872 27.6386 81.657 28.6349L83.532 27.9389C83.2523 27.1853 83.1073 26.3564 83.1073 25.4432H81.1073ZM81.657 28.6349C82.04 29.6667 82.6434 30.5283 83.4741 31.1879L84.7178 29.6217C84.1962 29.2075 83.7986 28.6572 83.532 27.9389L81.657 28.6349ZM83.4741 31.1879C84.3624 31.8934 85.4577 32.2102 86.6812 32.2102V30.2102C85.81 30.2102 85.1818 29.9902 84.7178 29.6217L83.4741 31.1879ZM99.4237 33H98.4237C98.4237 33.5523 98.8714 34 99.4237 34V33ZM99.4237 17.7273V16.7273C98.8714 16.7273 98.4237 17.175 98.4237 17.7273H99.4237ZM101.691 17.7273H102.691C102.691 17.175 102.243 16.7273 101.691 16.7273V17.7273ZM101.691 20.0341H100.691C100.691 20.5864 101.138 21.0341 101.691 21.0341V20.0341ZM101.85 20.0341V21.0341C102.269 21.0341 102.643 20.7729 102.788 20.3798L101.85 20.0341ZM103.361 18.1946L102.819 17.3544V17.3544L103.361 18.1946ZM107.06 17.5284H108.06C108.06 17.0147 107.671 16.5845 107.16 16.5334L107.06 17.5284ZM107.06 19.9148L106.817 20.8849C107.116 20.9596 107.433 20.8925 107.675 20.703C107.918 20.5135 108.06 20.2227 108.06 19.9148H107.06ZM106.513 19.8253L106.349 20.8117C106.357 20.8131 106.366 20.8145 106.375 20.8157L106.513 19.8253ZM103.64 20.223L104.107 21.1071L104.111 21.1051L103.64 20.223ZM102.267 21.4957L101.418 20.9676L101.416 20.9705L102.267 21.4957ZM101.77 33V34C102.323 34 102.77 33.5523 102.77 33H101.77ZM100.424 33V17.7273H98.4237V33H100.424ZM99.4237 18.7273H101.691V16.7273H99.4237V18.7273ZM100.691 17.7273V20.0341H102.691V17.7273H100.691ZM101.691 21.0341H101.85V19.0341H101.691V21.0341ZM102.788 20.3798C102.986 19.8437 103.341 19.3976 103.903 19.0348L102.819 17.3544C101.923 17.9329 101.271 18.7132 100.911 19.6884L102.788 20.3798ZM103.903 19.0348C104.462 18.6742 105.094 18.4886 105.827 18.4886V16.4886C104.731 16.4886 103.719 16.7737 102.819 17.3544L103.903 19.0348ZM105.827 18.4886C105.988 18.4886 106.194 18.4917 106.448 18.4983L106.499 16.4989C106.236 16.4922 106.011 16.4886 105.827 16.4886V18.4886ZM106.448 18.4983C106.7 18.5047 106.866 18.514 106.961 18.5234L107.16 16.5334C106.989 16.5163 106.764 16.5057 106.499 16.4989L106.448 18.4983ZM106.06 17.5284V19.9148H108.06V17.5284H106.06ZM107.303 18.9446C107.161 18.9092 106.921 18.8726 106.651 18.8349L106.375 20.8157C106.513 20.835 106.622 20.8512 106.702 20.8644C106.791 20.8789 106.821 20.8858 106.817 20.8849L107.303 18.9446ZM106.678 18.8389C106.34 18.7826 105.989 18.7557 105.628 18.7557V20.7557C105.89 20.7557 106.13 20.7752 106.349 20.8117L106.678 18.8389ZM105.628 18.7557C104.742 18.7557 103.914 18.9429 103.168 19.3409L104.111 21.1051C104.532 20.88 105.03 20.7557 105.628 20.7557V18.7557ZM103.172 19.339C102.442 19.725 101.852 20.2707 101.418 20.9676L103.117 22.0239C103.359 21.6336 103.684 21.3309 104.107 21.107L103.172 19.339ZM101.416 20.9705C100.979 21.6797 100.77 22.4781 100.77 23.3352H102.77C102.77 22.8136 102.893 22.3856 103.118 22.021L101.416 20.9705ZM100.77 23.3352V33H102.77V23.3352H100.77ZM101.77 32H99.4237V34H101.77V32ZM116.099 33L115.134 33.2638C115.253 33.6985 115.648 34 116.099 34V33ZM110.53 12.6364V11.6364C110.219 11.6364 109.925 11.7818 109.736 12.0296C109.546 12.2775 109.484 12.5994 109.566 12.9001L110.53 12.6364ZM113.036 12.6364L114.005 12.3878C113.891 11.9456 113.493 11.6364 113.036 11.6364V12.6364ZM117.292 29.2216L116.323 29.4701C116.437 29.9124 116.835 30.2216 117.292 30.2216V29.2216ZM117.491 29.2216V30.2216C117.946 30.2216 118.343 29.9146 118.458 29.4745L117.491 29.2216ZM121.826 12.6364V11.6364C121.371 11.6364 120.973 11.9434 120.858 12.3835L121.826 12.6364ZM124.61 12.6364L125.578 12.3835C125.463 11.9434 125.065 11.6364 124.61 11.6364V12.6364ZM128.945 29.2216L127.978 29.4745C128.093 29.9146 128.49 30.2216 128.945 30.2216V29.2216ZM129.144 29.2216V30.2216C129.601 30.2216 129.999 29.9124 130.113 29.4701L129.144 29.2216ZM133.4 12.6364V11.6364C132.943 11.6364 132.545 11.9456 132.431 12.3878L133.4 12.6364ZM135.906 12.6364L136.87 12.9001C136.952 12.5994 136.89 12.2775 136.7 12.0296C136.511 11.7818 136.217 11.6364 135.906 11.6364V12.6364ZM130.337 33V34C130.788 34 131.183 33.6985 131.302 33.2638L130.337 33ZM127.792 33L126.828 33.2669C126.948 33.7001 127.342 34 127.792 34V33ZM123.298 16.7727L124.261 16.5058C124.141 16.0726 123.747 15.7727 123.298 15.7727V16.7727ZM123.138 16.7727V15.7727C122.689 15.7727 122.295 16.0726 122.175 16.5058L123.138 16.7727ZM118.644 33V34C119.094 34 119.488 33.7001 119.608 33.2669L118.644 33ZM117.063 32.7362L111.495 12.3726L109.566 12.9001L115.134 33.2638L117.063 32.7362ZM110.53 13.6364H113.036V11.6364H110.53V13.6364ZM112.068 12.8849L116.323 29.4701L118.26 28.973L114.005 12.3878L112.068 12.8849ZM117.292 30.2216H117.491V28.2216H117.292V30.2216ZM118.458 29.4745L122.793 12.8893L120.858 12.3835L116.523 28.9687L118.458 29.4745ZM121.826 13.6364H124.61V11.6364H121.826V13.6364ZM123.643 12.8893L127.978 29.4745L129.913 28.9687L125.578 12.3835L123.643 12.8893ZM128.945 30.2216H129.144V28.2216H128.945V30.2216ZM130.113 29.4701L134.368 12.8849L132.431 12.3878L128.176 28.973L130.113 29.4701ZM133.4 13.6364H135.906V11.6364H133.4V13.6364ZM134.941 12.3726L129.373 32.7362L131.302 33.2638L136.87 12.9001L134.941 12.3726ZM130.337 32H127.792V34H130.337V32ZM128.756 32.7331L124.261 16.5058L122.334 17.0396L126.828 33.2669L128.756 32.7331ZM123.298 15.7727H123.138V17.7727H123.298V15.7727ZM122.175 16.5058L117.68 32.7331L119.608 33.2669L124.102 17.0396L122.175 16.5058ZM118.644 32H116.099V34H118.644V32ZM142.053 32.3338L141.517 33.1781L141.52 33.1797L142.053 32.3338ZM139.627 29.5795L138.729 30.0187L138.731 30.0227L139.627 29.5795ZM139.627 21.277L138.73 20.8358L138.728 20.8399L139.627 21.277ZM142.053 18.5128L141.52 17.6669L141.517 17.6685L142.053 18.5128ZM149.302 18.5128L148.766 19.3571L148.768 19.3587L149.302 18.5128ZM151.728 21.277L150.828 21.7141L150.83 21.7182L151.728 21.277ZM151.728 29.5795L150.831 29.1364L150.829 29.1404L151.728 29.5795ZM149.302 32.3338L148.768 31.4879L148.766 31.4895L149.302 32.3338ZM148.268 30.4048L147.646 29.6217L148.268 30.4048ZM149.769 28.2869L150.707 28.6349L149.769 28.2869ZM149.769 22.5895L150.707 22.2438L149.769 22.5895ZM148.268 20.4517L148.894 19.6723L148.268 20.4517ZM143.097 20.4517L142.471 19.6723L143.097 20.4517ZM141.596 22.5895L140.657 22.2438L141.596 22.5895ZM141.596 28.2869L140.658 28.6349L141.596 28.2869ZM143.097 30.4048L143.719 29.6217L143.097 30.4048ZM145.682 32.3182C144.469 32.3182 143.449 32.0317 142.587 31.4879L141.52 33.1797C142.739 33.9484 144.138 34.3182 145.682 34.3182V32.3182ZM142.589 31.4895C141.721 30.9387 141.032 30.1648 140.523 29.1364L138.731 30.0227C139.389 31.3541 140.317 32.4164 141.517 33.1781L142.589 31.4895ZM140.525 29.1404C140.028 28.122 139.762 26.8989 139.762 25.4432H137.762C137.762 27.1428 138.073 28.6772 138.729 30.0187L140.525 29.1404ZM139.762 25.4432C139.762 23.973 140.028 22.7393 140.526 21.7141L138.728 20.8399C138.072 22.1878 137.762 23.7316 137.762 25.4432H139.762ZM140.524 21.7182C141.033 20.6831 141.723 19.907 142.589 19.3571L141.517 17.6685C140.316 18.4311 139.387 19.4978 138.73 20.8358L140.524 21.7182ZM142.587 19.3587C143.449 18.8149 144.469 18.5284 145.682 18.5284V16.5284C144.138 16.5284 142.739 16.8981 141.52 17.6669L142.587 19.3587ZM145.682 18.5284C146.896 18.5284 147.912 18.815 148.766 19.3571L149.838 17.6685C148.624 16.8981 147.226 16.5284 145.682 16.5284V18.5284ZM148.768 19.3587C149.64 19.9082 150.327 20.6827 150.828 21.7141L152.627 20.8399C151.975 19.4982 151.045 18.4298 149.835 17.6669L148.768 19.3587ZM150.83 21.7182C151.334 22.7423 151.603 23.9745 151.603 25.4432H153.603C153.603 23.73 153.288 22.1848 152.625 20.8358L150.83 21.7182ZM151.603 25.4432C151.603 26.8973 151.334 28.119 150.831 29.1364L152.624 30.0227C153.288 28.6803 153.603 27.1444 153.603 25.4432H151.603ZM150.829 29.1404C150.329 30.1652 149.641 30.9375 148.768 31.4879L149.835 33.1797C151.044 32.4176 151.974 31.3537 152.626 30.0187L150.829 29.1404ZM148.766 31.4895C147.912 32.0316 146.896 32.3182 145.682 32.3182V34.3182C147.226 34.3182 148.624 33.9485 149.838 33.1781L148.766 31.4895ZM145.682 32.2102C146.906 32.2102 148.001 31.8934 148.89 31.1879L147.646 29.6217C147.182 29.9902 146.554 30.2102 145.682 30.2102V32.2102ZM148.89 31.1879C149.72 30.5283 150.324 29.6667 150.707 28.6349L148.832 27.9389C148.565 28.6572 148.167 29.2075 147.646 29.6217L148.89 31.1879ZM150.707 28.6349C151.076 27.6386 151.256 26.5717 151.256 25.4432H149.256C149.256 26.3564 149.111 27.1853 148.832 27.9389L150.707 28.6349ZM151.256 25.4432C151.256 24.3146 151.076 23.2453 150.707 22.2438L148.831 22.9352C149.111 23.6969 149.256 24.5301 149.256 25.4432H151.256ZM150.707 22.2438C150.325 21.2066 149.723 20.3389 148.894 19.6723L147.641 21.2311C148.164 21.6516 148.563 22.2091 148.831 22.9352L150.707 22.2438ZM148.894 19.6723C148.006 18.9581 146.909 18.6364 145.682 18.6364V20.6364C146.551 20.6364 147.177 20.8582 147.641 21.2311L148.894 19.6723ZM145.682 18.6364C144.456 18.6364 143.359 18.9581 142.471 19.6723L143.724 21.2311C144.188 20.8582 144.814 20.6364 145.682 20.6364V18.6364ZM142.471 19.6723C141.642 20.3389 141.04 21.2066 140.657 22.2438L142.534 22.9352C142.802 22.2091 143.201 21.6516 143.724 21.2311L142.471 19.6723ZM140.657 22.2438C140.288 23.2453 140.109 24.3146 140.109 25.4432H142.109C142.109 24.5301 142.253 23.6969 142.534 22.9352L140.657 22.2438ZM140.109 25.4432C140.109 26.5717 140.288 27.6386 140.658 28.6349L142.533 27.9389C142.254 27.1853 142.109 26.3564 142.109 25.4432H140.109ZM140.658 28.6349C141.041 29.6667 141.645 30.5283 142.475 31.1879L143.719 29.6217C143.197 29.2075 142.8 28.6572 142.533 27.9389L140.658 28.6349ZM142.475 31.1879C143.364 31.8934 144.459 32.2102 145.682 32.2102V30.2102C144.811 30.2102 144.183 29.9902 143.719 29.6217L142.475 31.1879Z" fill="black"/>
</svg>
