<svg width="50" height="50" viewBox="0 0 50 50" fill="none" xmlns="http://www.w3.org/2000/svg">
<rect x="0.5" y="0.5" width="49" height="49" rx="5.5" fill="#267BCF" stroke="white"/>
<mask id="path-2-outside-1_2779_6" maskUnits="userSpaceOnUse" x="4" y="12" width="41" height="29" fill="black">
<rect fill="white" x="4" y="12" width="41" height="29"/>
<path d="M14.5455 38.3636C12.9697 38.3636 11.5871 37.9886 10.3977 37.2386C9.21591 36.4886 8.29167 35.4394 7.625 34.0909C6.96591 32.7424 6.63636 31.1667 6.63636 29.3636C6.63636 27.5455 6.96591 25.9583 7.625 24.6023C8.29167 23.2462 9.21591 22.1932 10.3977 21.4432C11.5871 20.6932 12.9697 20.3182 14.5455 20.3182C16.1212 20.3182 17.5 20.6932 18.6818 21.4432C19.8712 22.1932 20.7955 23.2462 21.4545 24.6023C22.1212 25.9583 22.4545 27.5455 22.4545 29.3636C22.4545 31.1667 22.1212 32.7424 21.4545 34.0909C20.7955 35.4394 19.8712 36.4886 18.6818 37.2386C17.5 37.9886 16.1212 38.3636 14.5455 38.3636ZM14.5455 35.9545C15.7424 35.9545 16.7273 35.6477 17.5 35.0341C18.2727 34.4205 18.8447 33.6136 19.2159 32.6136C19.5871 31.6136 19.7727 30.5303 19.7727 29.3636C19.7727 28.197 19.5871 27.1098 19.2159 26.1023C18.8447 25.0947 18.2727 24.2803 17.5 23.6591C16.7273 23.0379 15.7424 22.7273 14.5455 22.7273C13.3485 22.7273 12.3636 23.0379 11.5909 23.6591C10.8182 24.2803 10.2462 25.0947 9.875 26.1023C9.50379 27.1098 9.31818 28.197 9.31818 29.3636C9.31818 30.5303 9.50379 31.6136 9.875 32.6136C10.2462 33.6136 10.8182 34.4205 11.5909 35.0341C12.3636 35.6477 13.3485 35.9545 14.5455 35.9545ZM30.3283 31.6364L30.2828 28.3182H30.8283L38.4647 20.5455H41.7828L33.6465 28.7727H33.4192L30.3283 31.6364ZM27.8283 38V14.7273H30.5101V38H27.8283ZM38.9192 38L32.101 29.3636L34.0101 27.5L42.3283 38H38.9192Z"/>
</mask>
<path d="M14.5455 38.3636C12.9697 38.3636 11.5871 37.9886 10.3977 37.2386C9.21591 36.4886 8.29167 35.4394 7.625 34.0909C6.96591 32.7424 6.63636 31.1667 6.63636 29.3636C6.63636 27.5455 6.96591 25.9583 7.625 24.6023C8.29167 23.2462 9.21591 22.1932 10.3977 21.4432C11.5871 20.6932 12.9697 20.3182 14.5455 20.3182C16.1212 20.3182 17.5 20.6932 18.6818 21.4432C19.8712 22.1932 20.7955 23.2462 21.4545 24.6023C22.1212 25.9583 22.4545 27.5455 22.4545 29.3636C22.4545 31.1667 22.1212 32.7424 21.4545 34.0909C20.7955 35.4394 19.8712 36.4886 18.6818 37.2386C17.5 37.9886 16.1212 38.3636 14.5455 38.3636ZM14.5455 35.9545C15.7424 35.9545 16.7273 35.6477 17.5 35.0341C18.2727 34.4205 18.8447 33.6136 19.2159 32.6136C19.5871 31.6136 19.7727 30.5303 19.7727 29.3636C19.7727 28.197 19.5871 27.1098 19.2159 26.1023C18.8447 25.0947 18.2727 24.2803 17.5 23.6591C16.7273 23.0379 15.7424 22.7273 14.5455 22.7273C13.3485 22.7273 12.3636 23.0379 11.5909 23.6591C10.8182 24.2803 10.2462 25.0947 9.875 26.1023C9.50379 27.1098 9.31818 28.197 9.31818 29.3636C9.31818 30.5303 9.50379 31.6136 9.875 32.6136C10.2462 33.6136 10.8182 34.4205 11.5909 35.0341C12.3636 35.6477 13.3485 35.9545 14.5455 35.9545ZM30.3283 31.6364L30.2828 28.3182H30.8283L38.4647 20.5455H41.7828L33.6465 28.7727H33.4192L30.3283 31.6364ZM27.8283 38V14.7273H30.5101V38H27.8283ZM38.9192 38L32.101 29.3636L34.0101 27.5L42.3283 38H38.9192Z" fill="white"/>
<path d="M10.3977 37.2386L9.32607 38.9273L9.33096 38.9304L10.3977 37.2386ZM7.625 34.0909L5.82812 34.9692L5.83213 34.9773L7.625 34.0909ZM7.625 24.6023L5.83015 23.7199L5.82621 23.728L7.625 24.6023ZM10.3977 21.4432L9.33095 19.7514L9.32608 19.7545L10.3977 21.4432ZM18.6818 21.4432L17.6102 23.1318L17.6151 23.1349L18.6818 21.4432ZM21.4545 24.6023L19.6557 25.4766L19.6597 25.4846L21.4545 24.6023ZM21.4545 34.0909L19.6617 33.2045L19.6577 33.2127L21.4545 34.0909ZM18.6818 37.2386L17.615 35.5469L17.6102 35.55L18.6818 37.2386ZM17.5 35.0341L16.2562 33.4679L16.2562 33.4679L17.5 35.0341ZM19.2159 32.6136L21.0909 33.3097L21.0909 33.3097L19.2159 32.6136ZM19.2159 26.1023L21.0926 25.4109L21.0926 25.4109L19.2159 26.1023ZM17.5 23.6591L18.7531 22.1003L18.7531 22.1003L17.5 23.6591ZM11.5909 23.6591L10.3378 22.1003L10.3378 22.1003L11.5909 23.6591ZM9.875 26.1023L7.99831 25.4109L7.99831 25.4109L9.875 26.1023ZM9.875 32.6136L8.00002 33.3097L8.00002 33.3097L9.875 32.6136ZM11.5909 35.0341L12.8347 33.4679L12.8347 33.4679L11.5909 35.0341ZM14.5455 36.3636C13.3003 36.3636 12.297 36.0719 11.4645 35.5469L9.33096 38.9304C10.8772 39.9054 12.6391 40.3636 14.5455 40.3636V36.3636ZM11.4694 35.55C10.6201 35.011 9.93475 34.2501 9.41787 33.2045L5.83213 34.9773C6.64858 36.6287 7.81175 37.9663 9.32608 38.9273L11.4694 35.55ZM9.42186 33.2127C8.92068 32.1873 8.63636 30.9228 8.63636 29.3636H4.63636C4.63636 31.4105 5.01114 33.2976 5.82814 34.9691L9.42186 33.2127ZM8.63636 29.3636C8.63636 27.7868 8.9216 26.5098 9.42379 25.4765L5.82621 23.728C5.01022 25.4069 4.63636 27.3041 4.63636 29.3636H8.63636ZM9.41983 25.4846C9.93759 24.4315 10.6229 23.669 11.4694 23.1318L9.32608 19.7545C7.80894 20.7173 6.64575 22.0609 5.83017 23.7199L9.41983 25.4846ZM11.4645 23.1349C12.297 22.61 13.3003 22.3182 14.5455 22.3182V18.3182C12.6391 18.3182 10.8772 18.7764 9.33096 19.7514L11.4645 23.1349ZM14.5455 22.3182C15.7908 22.3182 16.7879 22.61 17.6102 23.1318L19.7535 19.7545C18.2121 18.7764 16.4516 18.3182 14.5455 18.3182V22.3182ZM17.6151 23.1349C18.4661 23.6716 19.1474 24.4306 19.6558 25.4765L23.2533 23.728C22.4435 22.0618 21.2764 20.7148 19.7486 19.7514L17.6151 23.1349ZM19.6597 25.4846C20.1667 26.5159 20.4545 27.79 20.4545 29.3636H24.4545C24.4545 27.3009 24.0757 25.4008 23.2494 23.7199L19.6597 25.4846ZM20.4545 29.3636C20.4545 30.9196 20.1676 32.1811 19.6617 33.2045L23.2474 34.9773C24.0748 33.3037 24.4545 31.4137 24.4545 29.3636H20.4545ZM19.6577 33.2127C19.1502 34.2509 18.4689 35.0085 17.615 35.5469L19.7486 38.9304C21.2735 37.9688 22.4407 36.6279 23.2514 34.9691L19.6577 33.2127ZM17.6102 35.55C16.7879 36.0718 15.7908 36.3636 14.5455 36.3636V40.3636C16.4516 40.3636 18.2121 39.9055 19.7535 38.9273L17.6102 35.55ZM14.5455 37.9545C16.0948 37.9545 17.5467 37.5509 18.7438 36.6003L16.2562 33.4679C15.9079 33.7445 15.3901 33.9545 14.5455 33.9545V37.9545ZM18.7438 36.6003C19.8255 35.7413 20.6033 34.6232 21.0909 33.3097L17.3409 31.9176C17.0861 32.6041 16.72 33.0996 16.2562 33.4679L18.7438 36.6003ZM21.0909 33.3097C21.5522 32.0669 21.7727 30.7456 21.7727 29.3636H17.7727C17.7727 30.315 17.622 31.1603 17.3409 31.9176L21.0909 33.3097ZM21.7727 29.3636C21.7727 27.9815 21.5522 26.6582 21.0926 25.4109L17.3392 26.7937C17.6221 27.5615 17.7727 28.4125 17.7727 29.3636H21.7727ZM21.0926 25.4109C20.6068 24.0922 19.8318 22.9675 18.7531 22.1003L16.2469 25.2178C16.7136 25.5931 17.0826 26.0972 17.3392 26.7937L21.0926 25.4109ZM18.7531 22.1003C17.5558 21.1378 16.1004 20.7273 14.5455 20.7273V24.7273C15.3845 24.7273 15.8988 24.938 16.2469 25.2178L18.7531 22.1003ZM14.5455 20.7273C12.9905 20.7273 11.5351 21.1378 10.3378 22.1003L12.844 25.2178C13.1921 24.938 13.7065 24.7273 14.5455 24.7273V20.7273ZM10.3378 22.1003C9.25907 22.9675 8.48413 24.0922 7.99831 25.4109L11.7517 26.7937C12.0083 26.0972 12.3773 25.5931 12.844 25.2178L10.3378 22.1003ZM7.99831 25.4109C7.53876 26.6582 7.31818 27.9815 7.31818 29.3636H11.3182C11.3182 28.4125 11.4688 27.5615 11.7517 26.7937L7.99831 25.4109ZM7.31818 29.3636C7.31818 30.7456 7.53871 32.0669 8.00002 33.3097L11.75 31.9176C11.4689 31.1603 11.3182 30.315 11.3182 29.3636H7.31818ZM8.00002 33.3097C8.48761 34.6232 9.26545 35.7413 10.3471 36.6003L12.8347 33.4679C12.3709 33.0996 12.0048 32.6041 11.75 31.9176L8.00002 33.3097ZM10.3471 36.6003C11.5442 37.5509 12.9961 37.9545 14.5455 37.9545V33.9545C13.7008 33.9545 13.183 33.7445 12.8347 33.4679L10.3471 36.6003ZM30.3283 31.6364L28.3285 31.6638C28.3393 32.4538 28.8142 33.1634 29.5404 33.4746C30.2666 33.7859 31.108 33.6404 31.6875 33.1035L30.3283 31.6364ZM30.2828 28.3182V26.3182C29.7477 26.3182 29.2348 26.5327 28.859 26.9137C28.4831 27.2947 28.2757 27.8104 28.283 28.3456L30.2828 28.3182ZM30.8283 28.3182V30.3182C31.3649 30.3182 31.8789 30.1026 32.255 29.7198L30.8283 28.3182ZM38.4647 20.5455V18.5455C37.9281 18.5455 37.414 18.7611 37.038 19.1438L38.4647 20.5455ZM41.7828 20.5455L43.2049 21.9518C43.7723 21.3781 43.9393 20.5196 43.6285 19.775C43.3176 19.0303 42.5897 18.5455 41.7828 18.5455V20.5455ZM33.6465 28.7727V30.7727C34.1808 30.7727 34.6928 30.559 35.0685 30.1791L33.6465 28.7727ZM33.4192 28.7727V26.7727C32.9152 26.7727 32.4297 26.963 32.06 27.3056L33.4192 28.7727ZM27.8283 38H25.8283C25.8283 39.1046 26.7237 40 27.8283 40V38ZM27.8283 14.7273V12.7273C26.7237 12.7273 25.8283 13.6227 25.8283 14.7273H27.8283ZM30.5101 14.7273H32.5101C32.5101 13.6227 31.6147 12.7273 30.5101 12.7273V14.7273ZM30.5101 38V40C31.6147 40 32.5101 39.1046 32.5101 38H30.5101ZM38.9192 38L37.3494 39.2393C37.7287 39.7197 38.3071 40 38.9192 40V38ZM32.101 29.3636L30.704 27.9325C29.9716 28.6474 29.8971 29.7997 30.5313 30.6029L32.101 29.3636ZM34.0101 27.5L35.5778 26.2581C35.2261 25.8141 34.7027 25.5401 34.1375 25.5041C33.5723 25.468 33.0183 25.6732 32.613 26.0689L34.0101 27.5ZM42.3283 38V40C43.0954 40 43.7949 39.5613 44.1288 38.8707C44.4628 38.1801 44.3723 37.3593 43.896 36.7581L42.3283 38ZM32.3281 31.609L32.2827 28.2908L28.283 28.3456L28.3285 31.6638L32.3281 31.609ZM30.2828 30.3182H30.8283V26.3182H30.2828V30.3182ZM32.255 29.7198L39.8913 21.9471L37.038 19.1438L29.4016 26.9165L32.255 29.7198ZM38.4647 22.5455H41.7828V18.5455H38.4647V22.5455ZM40.3608 19.1391L32.2244 27.3664L35.0685 30.1791L43.2049 21.9518L40.3608 19.1391ZM33.6465 26.7727H33.4192V30.7727H33.6465V26.7727ZM32.06 27.3056L28.9691 30.1692L31.6875 33.1035L34.7785 30.2398L32.06 27.3056ZM29.8283 38V14.7273H25.8283V38H29.8283ZM27.8283 16.7273H30.5101V12.7273H27.8283V16.7273ZM28.5101 14.7273V38H32.5101V14.7273H28.5101ZM30.5101 36H27.8283V40H30.5101V36ZM40.489 36.7607L33.6708 28.1243L30.5313 30.6029L37.3494 39.2393L40.489 36.7607ZM33.4981 30.7948L35.4072 28.9311L32.613 26.0689L30.704 27.9325L33.4981 30.7948ZM32.4424 28.7419L40.7606 39.2419L43.896 36.7581L35.5778 26.2581L32.4424 28.7419ZM42.3283 36H38.9192V40H42.3283V36Z" fill="white" mask="url(#path-2-outside-1_2779_6)"/>
</svg>
