<svg width="50" height="50" viewBox="0 0 50 50" fill="none" xmlns="http://www.w3.org/2000/svg">
<rect width="50" height="50" rx="6" fill="#267BCF"/>
<path d="M15.784 35.488C16.0187 35.2747 16.2533 35.168 16.488 35.168C16.744 35.168 16.9467 35.3173 17.096 35.616C17.2667 35.8933 17.352 36.2347 17.352 36.64C17.352 37.536 17.032 38.2507 16.392 38.784C15.2827 39.7013 14.024 40.16 12.616 40.16C10.5893 40.16 9.10667 39.3173 8.168 37.632C7.22933 35.9253 6.76 33.7067 6.76 30.976C6.76 28.3733 7.09067 25.408 7.752 22.08C8.43467 18.752 9.42667 15.8933 10.728 13.504C12.0507 11.1147 13.6187 9.92 15.432 9.92C16.456 9.92 17.256 10.4 17.832 11.36C18.4293 12.2987 18.728 13.6533 18.728 15.424C18.728 17.9627 18.024 20.9067 16.616 24.256C15.2293 27.6053 13.3307 30.912 10.92 34.176C11.0693 35.0507 11.336 35.68 11.72 36.064C12.104 36.448 12.6267 36.64 13.288 36.64C13.6507 36.64 14.056 36.5333 14.504 36.32C14.9733 36.1067 15.4 35.8293 15.784 35.488ZM14.728 13.088C14.2373 13.088 13.6827 13.9733 13.064 15.744C12.4453 17.5147 11.9013 19.712 11.432 22.336C10.9627 24.96 10.7067 27.4773 10.664 29.888C12.1787 27.392 13.384 24.896 14.28 22.4C15.176 19.8827 15.624 17.5893 15.624 15.52C15.624 13.8987 15.3253 13.088 14.728 13.088ZM42.754 25.056C43.9273 25.056 44.514 25.4293 44.514 26.176C44.514 26.432 44.4287 26.784 44.258 27.232C42.53 31.264 40.898 34.5173 39.362 36.992C38.594 38.208 37.9007 39.04 37.282 39.488C36.6633 39.936 35.9593 40.16 35.17 40.16C34.3167 40.16 33.6767 39.8293 33.25 39.168C32.8447 38.5067 32.5887 37.4187 32.482 35.904C32.4393 35.3493 32.3967 34.5173 32.354 33.408C31.6927 35.2427 31.0847 36.6507 30.53 37.632C29.9967 38.592 29.4633 39.2533 28.93 39.616C28.418 39.9787 27.7993 40.16 27.074 40.16C26.1993 40.16 25.506 39.8187 24.994 39.136C24.5033 38.4533 24.194 37.376 24.066 35.904C23.81 32.9173 23.682 30.304 23.682 28.064V26.944C23.7033 26.2187 23.8847 25.728 24.226 25.472C24.5673 25.1947 25.122 25.056 25.89 25.056C26.4447 25.056 26.85 25.184 27.106 25.44C27.3833 25.6747 27.522 26.08 27.522 26.656C27.522 29.1093 27.6713 32.2987 27.97 36.224C28.674 34.7307 29.3247 33.3013 29.922 31.936C30.5193 30.5707 31.2127 28.8213 32.002 26.688C32.2367 26.048 32.514 25.6213 32.834 25.408C33.1753 25.1733 33.57 25.056 34.018 25.056C34.6153 25.056 35.0633 25.184 35.362 25.44C35.6607 25.6747 35.81 26.08 35.81 26.656V31.616C35.81 33.7493 35.8207 35.2853 35.842 36.224C36.8233 34.5173 37.6233 33.0347 38.242 31.776C38.882 30.5173 39.5967 28.8213 40.386 26.688C40.6207 26.048 40.93 25.6213 41.314 25.408C41.698 25.1733 42.178 25.056 42.754 25.056Z" fill="white"/>
</svg>
