<svg width="46" height="44" viewBox="0 0 46 44" fill="none" xmlns="http://www.w3.org/2000/svg">
<rect x="0.5" y="0.5" width="43" height="43" rx="3.5" fill="#0A66C2" stroke="white"/>
<path d="M7.14773 32V16.7273H9.41477V19.0341H9.57386C9.85227 18.2784 10.3561 17.6652 11.0852 17.1946C11.8144 16.724 12.6364 16.4886 13.5511 16.4886C13.7235 16.4886 13.9389 16.4919 14.1974 16.4986C14.456 16.5052 14.6515 16.5152 14.7841 16.5284V18.9148C14.7045 18.8949 14.5223 18.8651 14.2372 18.8253C13.9588 18.7789 13.6638 18.7557 13.3523 18.7557C12.6098 18.7557 11.947 18.9115 11.3636 19.223C10.7869 19.5279 10.3295 19.9522 9.99148 20.4957C9.66004 21.0327 9.49432 21.6458 9.49432 22.3352V32H7.14773ZM21.9932 26.4318L21.9534 23.5284H22.4307L29.1125 16.7273H32.0159L24.8966 23.9261H24.6977L21.9932 26.4318ZM19.8057 32V11.6364H22.1523V32H19.8057ZM29.5102 32L23.5443 24.4432L25.2148 22.8125L32.4932 32H29.5102Z" fill="white"/>
<path d="M7.14773 32H5.64773C5.64773 32.8284 6.3193 33.5 7.14773 33.5V32ZM7.14773 16.7273V15.2273C6.3193 15.2273 5.64773 15.8988 5.64773 16.7273H7.14773ZM9.41477 16.7273H10.9148C10.9148 15.8988 10.2432 15.2273 9.41477 15.2273V16.7273ZM9.41477 19.0341H7.91477C7.91477 19.8625 8.58635 20.5341 9.41477 20.5341V19.0341ZM9.57386 19.0341V20.5341C10.2023 20.5341 10.7641 20.1423 10.9814 19.5526L9.57386 19.0341ZM11.0852 17.1946L10.2718 15.9343L10.2718 15.9343L11.0852 17.1946ZM14.7841 16.5284H16.2841C16.2841 15.7578 15.7002 15.1125 14.9334 15.0359L14.7841 16.5284ZM14.7841 18.9148L14.4203 20.37C14.8684 20.482 15.3431 20.3813 15.7072 20.0971C16.0713 19.8128 16.2841 19.3767 16.2841 18.9148H14.7841ZM14.2372 18.8253L13.9906 20.3049C14.0037 20.3071 14.0168 20.3091 14.0299 20.3109L14.2372 18.8253ZM11.3636 19.223L12.0648 20.5491L12.0703 20.5461L11.3636 19.223ZM9.99148 20.4957L8.71773 19.7035L8.71507 19.7078L9.99148 20.4957ZM9.49432 32V33.5C10.3227 33.5 10.9943 32.8284 10.9943 32H9.49432ZM8.64773 32V16.7273H5.64773V32H8.64773ZM7.14773 18.2273H9.41477V15.2273H7.14773V18.2273ZM7.91477 16.7273V19.0341H10.9148V16.7273H7.91477ZM9.41477 20.5341H9.57386V17.5341H9.41477V20.5341ZM10.9814 19.5526C11.1385 19.1263 11.4202 18.7637 11.8987 18.4549L10.2718 15.9343C9.29196 16.5668 8.56609 17.4305 8.16635 18.5155L10.9814 19.5526ZM11.8987 18.4549C12.372 18.1494 12.9085 17.9886 13.5511 17.9886V14.9886C12.3642 14.9886 11.2568 15.2985 10.2718 15.9343L11.8987 18.4549ZM13.5511 17.9886C13.706 17.9886 13.9076 17.9916 14.159 17.9981L14.2359 14.9991C13.9702 14.9923 13.7409 14.9886 13.5511 14.9886V17.9886ZM14.159 17.9981C14.408 18.0045 14.5589 18.0134 14.6348 18.021L14.9334 15.0359C14.7441 15.0169 14.5039 15.0059 14.2359 14.9991L14.159 17.9981ZM13.2841 16.5284V18.9148H16.2841V16.5284H13.2841ZM15.1479 17.4596C14.9752 17.4164 14.7072 17.3763 14.4445 17.3397L14.0299 20.3109C14.1664 20.3299 14.2705 20.3455 14.3455 20.3578C14.3829 20.3639 14.4088 20.3685 14.4254 20.3717C14.4449 20.3754 14.4399 20.3749 14.4203 20.37L15.1479 17.4596ZM14.4838 17.3457C14.116 17.2844 13.738 17.2557 13.3523 17.2557V20.2557C13.5896 20.2557 13.8016 20.2734 13.9906 20.3049L14.4838 17.3457ZM13.3523 17.2557C12.394 17.2557 11.4833 17.4586 10.657 17.8999L12.0703 20.5461C12.4107 20.3643 12.8257 20.2557 13.3523 20.2557V17.2557ZM10.6625 17.897C9.85575 18.3235 9.19884 18.93 8.71774 19.7035L11.2652 21.2879C11.4602 20.9744 11.7181 20.7324 12.0648 20.5491L10.6625 17.897ZM8.71507 19.7078C8.22405 20.5033 7.99432 21.3942 7.99432 22.3352H10.9943C10.9943 21.8975 11.096 21.5621 11.2679 21.2836L8.71507 19.7078ZM7.99432 22.3352V32H10.9943V22.3352H7.99432ZM9.49432 30.5H7.14773V33.5H9.49432V30.5ZM21.9932 26.4318L20.4933 26.4524C20.5015 27.0449 20.8576 27.5771 21.4023 27.8105C21.9469 28.044 22.5779 27.9349 23.0126 27.5322L21.9932 26.4318ZM21.9534 23.5284V22.0284C21.552 22.0284 21.1674 22.1893 20.8855 22.475C20.6037 22.7608 20.4481 23.1476 20.4536 23.549L21.9534 23.5284ZM22.4307 23.5284V25.0284C22.8331 25.0284 23.2187 24.8667 23.5007 24.5796L22.4307 23.5284ZM29.1125 16.7273V15.2273C28.7101 15.2273 28.3245 15.389 28.0425 15.676L29.1125 16.7273ZM32.0159 16.7273L33.0825 17.782C33.508 17.3517 33.6333 16.7079 33.4001 16.1494C33.167 15.5909 32.6211 15.2273 32.0159 15.2273V16.7273ZM24.8966 23.9261V25.4261C25.2973 25.4261 25.6814 25.2658 25.9631 24.9809L24.8966 23.9261ZM24.6977 23.9261V22.4261C24.3197 22.4261 23.9556 22.5689 23.6783 22.8258L24.6977 23.9261ZM19.8057 32H18.3057C18.3057 32.8284 18.9773 33.5 19.8057 33.5V32ZM19.8057 11.6364V10.1364C18.9773 10.1364 18.3057 10.8079 18.3057 11.6364H19.8057ZM22.1523 11.6364H23.6523C23.6523 10.8079 22.9807 10.1364 22.1523 10.1364V11.6364ZM22.1523 32V33.5C22.9807 33.5 23.6523 32.8284 23.6523 32H22.1523ZM29.5102 32L28.3329 32.9295C28.6174 33.2898 29.0512 33.5 29.5102 33.5V32ZM23.5443 24.4432L22.4965 23.3698C21.9473 23.906 21.8914 24.7702 22.367 25.3726L23.5443 24.4432ZM25.2148 22.8125L26.3905 21.8811C26.1268 21.5481 25.7342 21.3426 25.3103 21.3155C24.8864 21.2885 24.4709 21.4424 24.167 21.7391L25.2148 22.8125ZM32.4932 32V33.5C33.0685 33.5 33.5931 33.1709 33.8436 32.653C34.0941 32.1351 34.0262 31.5195 33.669 31.0686L32.4932 32ZM23.4931 26.4113L23.4533 23.5079L20.4536 23.549L20.4933 26.4524L23.4931 26.4113ZM21.9534 25.0284H22.4307V22.0284H21.9534V25.0284ZM23.5007 24.5796L30.1825 17.7785L28.0425 15.676L21.3607 22.4772L23.5007 24.5796ZM29.1125 18.2273H32.0159V15.2273H29.1125V18.2273ZM30.9494 15.6725L23.8301 22.8714L25.9631 24.9809L33.0825 17.782L30.9494 15.6725ZM24.8966 22.4261H24.6977V25.4261H24.8966V22.4261ZM23.6783 22.8258L20.9738 25.3315L23.0126 27.5322L25.7172 25.0265L23.6783 22.8258ZM21.3057 32V11.6364H18.3057V32H21.3057ZM19.8057 13.1364H22.1523V10.1364H19.8057V13.1364ZM20.6523 11.6364V32H23.6523V11.6364H20.6523ZM22.1523 30.5H19.8057V33.5H22.1523V30.5ZM30.6876 31.0705L24.7217 23.5137L22.367 25.3726L28.3329 32.9295L30.6876 31.0705ZM24.5921 25.5165L26.2626 23.8859L24.167 21.7391L22.4965 23.3698L24.5921 25.5165ZM24.039 23.7439L31.3174 32.9314L33.669 31.0686L26.3905 21.8811L24.039 23.7439ZM32.4932 30.5H29.5102V33.5H32.4932V30.5Z" fill="white"/>
</svg>
